<svg width="409" height="518" viewBox="0 0 409 518" fill="none" xmlns="http://www.w3.org/2000/svg">
<path d="M264.13 230.363C306.981 241.596 354.187 252.621 378.468 293.774C383.835 302.873 387.534 312.751 390.575 322.848C395.567 339.422 411.531 415.537 408.656 428.611C405.735 431.058 401.639 430.717 397.98 430.755C398.167 445.727 400.114 505.032 394.933 515.384C387.86 519.723 336.535 517.306 324.218 517.513C272.157 516.134 219.711 517.284 167.613 517.364C154.119 517.386 114.394 519.377 104.088 516.173C100.887 512.31 101.96 504.346 101.987 499.554C76.3242 494.86 55.7643 489.692 37.4896 469.749C35.8811 467.48 34.662 465.113 33.4021 462.634C29.6376 458.007 24.9686 454.062 20.842 449.749C9.16954 437.551 3.25592 423.41 1.13396 406.656C-0.105555 396.872 -1.76843 380.776 4.94942 372.725C8.00144 369.067 11.9512 368.036 16.4978 367.63C12.4545 352.872 11.113 336.319 8.73086 321.146C6.36065 306.04 2.68972 289.998 1.84128 274.805C1.62194 270.879 1.75457 267.251 3.15731 263.562C8.49112 260.03 79.5514 270.475 90.4196 271.656C102.145 253.74 153.184 242.308 173.154 236.825C173.317 243.936 173.147 249.316 176.391 255.927C179.736 262.855 185.75 268.114 193.044 270.488C206.079 274.761 221.123 270.466 232.984 264.548C247.613 257.25 258.765 246.071 264.13 230.363Z" fill="#FEC73C"/>
<path d="M16.4978 367.63C12.4545 352.872 11.113 336.319 8.73086 321.146C6.36065 306.04 2.68972 289.998 1.84128 274.805C1.62194 270.879 1.75457 267.251 3.15731 263.562C8.49112 260.03 79.5514 270.475 90.4196 271.656C101.053 272.943 154.223 276.927 159.628 282.794C162.063 285.436 163.09 291.06 163.811 294.576C170.418 326.765 174.479 359.913 179.875 392.361C184.293 418.914 190.609 447.195 193.67 473.707C194.051 477.003 194.144 480.557 193.423 483.815C193.138 485.111 192.582 485.974 191.75 486.978C182.169 489.392 118.556 479.833 102.944 477.785C102.759 485.003 102.879 492.389 101.987 499.555C76.3242 494.861 55.7643 489.692 37.4896 469.749C35.8811 467.48 34.662 465.113 33.4021 462.634C29.6376 458.007 24.9686 454.062 20.842 449.749C9.16954 437.551 3.25592 423.41 1.13396 406.656C-0.105555 396.873 -1.76843 380.777 4.94942 372.725C8.00144 369.067 11.9512 368.036 16.4978 367.63Z" fill="#2B6BCC"/>
<path d="M16.4978 367.63C25.5178 367.881 40.766 369.009 47.4754 375.793C49.3185 377.656 50.1363 379.797 49.9595 382.415C49.7793 385.085 48.0807 388.127 46.9126 390.482C47.4057 392.139 48.1606 392.559 49.4222 393.633C51.6292 395.509 53.0591 397.759 53.1255 400.763C53.2513 406.517 46.496 408.29 46.7732 412.288C49.1961 414.589 50.4322 415.386 50.6923 418.972C50.8981 421.828 49.5395 424.598 47.6012 426.607C42.6159 431.775 34.9561 433.457 28.2009 434.889C29.9879 443.98 32.4703 453.431 33.4021 462.635C29.6376 458.007 24.9686 454.062 20.842 449.749C9.16954 437.552 3.25592 423.41 1.13396 406.657C-0.105555 396.873 -1.76843 380.777 4.94941 372.725C8.00144 369.067 11.9512 368.036 16.4978 367.63Z" fill="#F6A26B"/>
<path d="M37.4897 469.749C59.2892 472.584 81.1073 475.264 102.944 477.785C102.759 485.003 102.88 492.389 101.987 499.554C76.3244 494.86 55.7645 489.692 37.4897 469.749Z" fill="#F6A26B"/>
<path d="M71.098 314.837C79.1404 314.88 87.3069 315.716 95.0993 317.756C97.0734 324.993 98.0391 332.664 99.3756 340.053C106.774 341.649 114.34 342.082 121.741 343.825C123.054 349.555 126.609 361.775 123.715 366.858C118.917 370.542 107.226 367.427 101.457 366.711C102.822 372.662 103.701 378.421 104.313 384.497L103.376 385.581C98.2228 388.121 85.2513 384.642 79.4227 383.7L77.1187 364.066C70.9637 363.366 62.3381 363.417 56.6166 361.215C54.765 360.502 54.629 360.235 53.9285 358.341C51.747 352.438 51.0023 339.357 53.2858 333.478C58.3747 332.37 67.6311 334.62 73.1282 335.002C72.2695 328.279 71.4738 321.608 71.098 314.837Z" fill="#B3D1FF"/>
<path d="M320.404 437.113C346.279 435.401 372.083 432.373 397.98 430.754C398.167 445.727 400.114 505.032 394.933 515.384C387.86 519.723 336.535 517.306 324.218 517.513C323.929 490.776 321.074 463.902 320.404 437.113Z" fill="#F6A26B"/>
<path d="M305.54 338.222C307.688 338.611 308.402 338.623 310.062 339.99C312.486 350.809 315.987 430.154 313.537 436.145C311.158 435.21 310.609 435.037 309.028 433.066C307.049 421.433 303.393 345.905 305.54 338.222Z" fill="#F69E16"/>
<path d="M128.305 70.619C122.064 64.353 115.305 58.6195 115.15 49.0506C115.026 41.2894 119.901 34.4361 125.179 29.2045C146.148 8.41103 187.78 -0.386311 216.187 0.0131035C230.583 0.216225 247.095 3.50373 257.279 14.5457C260.454 17.9868 262.678 22.3598 264.545 26.6237C275.906 32.0533 283.564 40.371 287.83 52.3944C294.405 70.9228 290.697 96.115 284.35 114.215C290.685 122.243 294.759 130.116 293.662 140.728C292.627 150.756 287.164 159.694 279.196 165.709C273.77 169.805 267.529 172.343 261.35 175.046C261.377 186.402 258.954 222.234 264.13 230.363C258.765 246.071 247.613 257.25 232.984 264.549C221.123 270.466 206.078 274.761 193.044 270.488C185.75 268.114 179.736 262.855 176.391 255.927C173.147 249.316 173.317 243.936 173.154 236.825C175.511 234.63 175.699 233.736 176.696 230.76L176.146 220.664C175.852 220.642 175.556 220.642 175.264 220.598C165.054 219.054 154.322 209.969 148.153 202.1C142.829 195.279 138.721 187.584 136.009 179.359C129.395 159.12 125.993 118.213 128.445 96.5998C128.21 87.9219 128.05 79.3003 128.305 70.619Z" fill="#F6A26B"/>
<path d="M128.305 70.619C122.064 64.353 115.305 58.6195 115.15 49.0507C115.026 41.2894 119.901 34.4361 125.179 29.2045C146.148 8.41103 187.78 -0.386311 216.187 0.0131035C230.583 0.216225 247.095 3.50373 257.279 14.5457C260.454 17.9868 262.678 22.3598 264.545 26.6237C275.906 32.0533 283.564 40.371 287.83 52.3944C294.405 70.9229 290.697 96.115 284.35 114.215C281.534 113.136 278.798 112.223 275.739 112.365C269.231 112.663 264.084 120.761 260.007 125.165C259.495 124.752 258.991 124.327 258.497 123.893C241.264 108.72 236.847 83.7332 235.543 61.9719C205.298 73.8349 166.317 79.4283 135.049 68.6185C130.941 77.5047 130.686 87.1777 128.445 96.5998C128.21 87.9219 128.05 79.3003 128.305 70.619Z" fill="#172D43"/>
<path d="M176.147 220.664C181.006 219.2 186.197 219.35 191.223 218.846C201.888 217.78 211.581 214.871 221.201 210.187C211.63 222.383 201.83 227.803 186.605 229.631C183.303 230.027 180.002 230.402 176.696 230.761L176.147 220.664Z" fill="#CB6D38"/>
<path d="M170.403 116.221C170.937 116.4 171.51 116.49 172.007 116.758C177.155 119.535 168.897 143.266 171.143 150.149C172.153 153.247 174.244 154.064 176.985 155.305C177.293 155.445 177.604 155.577 177.913 155.713L178.384 157.241L176.626 158.994C173.493 159.246 169.177 159.878 166.227 158.492C165.078 157.951 163.743 157.103 163.389 155.833C161.608 149.439 167.399 122.574 170.403 116.221Z" fill="#CB6D38"/>
<path d="M147.05 97.3884C151.329 97.1222 156.217 96.6237 159.809 99.4333C161.386 100.667 161.425 100.918 161.715 102.794C161.507 103.074 161.327 103.375 161.094 103.632C158.224 106.814 152.805 105.962 148.918 105.892C146.034 106.445 142.612 107.563 139.718 107.618C137.411 107.661 136.225 106.937 134.576 105.469L134.853 103.912C138.313 99.8259 141.988 98.7693 147.05 97.3884Z" fill="#172D43"/>
<path d="M205.902 98.3698C209.267 98.2537 212.778 98.1991 216.061 99.0764C218.516 99.7319 222.349 101.796 223.546 104.088C224.158 105.261 223.877 105.068 223.417 106.495C221.353 107.568 219.877 107.177 217.699 106.821C212.625 105.925 207.636 106.573 202.586 106.013C200.39 105.769 199.352 105.445 198.002 103.712C198.317 102.932 198.502 102.352 199.04 101.652C200.713 99.481 203.409 98.9911 205.902 98.3698Z" fill="#172D43"/>
<path d="M148.808 115.944C149.83 116.335 151.522 116.821 152.399 117.569C154.285 119.177 155.281 121.681 155.59 124.098C156.143 128.413 154.565 132.335 152.113 135.759C150.212 135.341 148.299 134.962 146.83 133.566C145.178 131.996 144.258 129.516 144.113 127.259C143.823 122.755 145.875 119.124 148.808 115.944Z" fill="#172D43"/>
<path d="M194.836 175.269C196.021 174.984 196.906 175.133 198.106 175.247L198.708 176.437L197.861 178.174C190.99 183.314 182.815 182.962 174.69 182.716C174.05 182.409 173.132 181.996 172.578 181.586C170.966 180.398 170.736 180.108 170.563 178.144C174.346 174.979 187.947 176.474 193.502 175.508L194.836 175.269Z" fill="#CB6D38"/>
<path d="M204.108 117.32C204.96 117.678 206.18 118.107 206.925 118.704C209.318 120.621 210.639 123.42 210.69 126.469C210.758 130.429 209.404 132.771 206.73 135.546C205.599 135.208 204.047 134.841 203.077 134.17C201.156 132.841 200.071 130.775 199.757 128.48C199.172 124.235 201.442 120.365 204.108 117.32Z" fill="#172D43"/>
</svg>
