<svg width="374" height="470" viewBox="0 0 374 470" fill="none" xmlns="http://www.w3.org/2000/svg">
<path d="M245.406 215.419C278.716 224.417 313.357 232.798 337.802 258.596C341.316 262.306 345.266 266.282 347.865 270.691C353.137 279.773 357.333 289.424 360.369 299.453C365.468 316.172 377.365 380.409 373.09 394.874C372.567 396.641 371.535 397.837 369.873 398.587C367.598 399.612 364.856 399.614 362.398 399.809C363.197 412.729 365.024 452.484 359.875 462.909C356.959 465.826 349.266 465.242 345.268 465.278C328.589 465.428 311.899 465.183 295.218 465.163L181.758 465.09C179.766 466.044 178.729 468.65 176.465 469.276C171.712 470.588 61.8719 469.827 51.1604 469.245C47.6408 469.056 40.6205 469.016 37.8985 466.959C31.0926 461.818 30.8902 452.731 29.3173 445.065C25.8664 444.948 21.5715 443.729 18.69 441.792C13.342 438.197 12.3128 432.601 11.1551 426.79C8.87557 424.728 5.93392 422.169 5.0969 419.13C4.44855 416.775 1.86039 395.932 1.92214 393.382C1.97531 391.18 2.52928 389.299 3.83112 387.473C6.28729 384.03 12.0058 382.638 15.9593 381.997C12.6438 369.135 10.6954 355.66 7.93393 342.643C5.25822 330.021 0.834695 316.049 0.0731449 303.274C-0.148116 299.565 -0.0537792 293.262 3.09705 290.632C9.16201 285.572 23.453 287.508 30.9862 287.684C32.2125 285.186 33.4167 282.225 35.6018 280.38C41.7234 275.207 54.2084 277.549 61.7364 277.862C62.2132 276.877 62.1687 276.918 62.8565 275.812C81.1062 246.41 123.849 233.728 156.172 227.488C154.87 232.375 154.723 236.443 156.637 241.224C158.925 246.937 163.89 250.442 169.46 252.759C183.197 258.474 199.654 257.583 213.203 251.795C230.787 244.285 238.538 232.478 245.406 215.419Z" fill="#FEC73C"/>
<path d="M61.7364 277.862C61.9971 277.894 62.2578 277.929 62.5202 277.96C72.3432 279.049 98.7607 274.53 104.682 282.257C105.874 283.813 106.352 285.526 106.606 287.415C117.086 287.275 138.411 284.892 147.45 289.458C149.747 292.876 150.99 296.626 151.968 300.583C158.601 327.441 162.645 355.406 167.787 382.618L176.748 431.013C178.724 441.923 181.895 453.194 181.317 464.336L181.758 465.09C179.766 466.044 178.729 468.65 176.465 469.276C171.712 470.588 61.8719 469.827 51.1604 469.246C47.6408 469.056 40.6205 469.016 37.8985 466.959C31.0926 461.818 30.8902 452.731 29.3173 445.065C25.8663 444.948 21.5715 443.729 18.69 441.792C13.342 438.197 12.3128 432.601 11.1551 426.79C8.87556 424.728 5.93392 422.17 5.0969 419.13C4.44855 416.775 1.86039 395.932 1.92214 393.382C1.97531 391.18 2.52928 389.3 3.83112 387.473C6.28729 384.03 12.0058 382.638 15.9593 381.997C12.6438 369.135 10.6954 355.66 7.93393 342.643C5.25822 330.022 0.834695 316.049 0.0731449 303.274C-0.148116 299.565 -0.0537792 293.262 3.09705 290.632C9.16201 285.572 23.453 287.508 30.9862 287.684C32.2125 285.186 33.4167 282.225 35.6018 280.38C41.7234 275.207 54.2084 277.549 61.7364 277.862Z" fill="#0056A3"/>
<path d="M15.9591 381.997C24.2864 382.043 44.3354 380.455 50.0453 387.037C51.445 388.65 51.5753 390.685 51.1482 392.669C50.5393 395.5 49.1089 397.989 49.987 400.795C51.8566 402.072 53.6011 402.968 55.6696 403.91C57.6901 404.83 58.8101 405.347 60.0536 407.262C60.208 410.7 58.4774 413.21 56.179 415.711C54.7485 417.269 53.047 418.569 51.3763 419.863C54.2545 422.22 57.2338 424.465 57.6969 428.392C57.9799 430.81 56.8994 433.088 55.1962 434.773C48.0301 441.867 38.1539 441.991 29.3172 445.065C25.8662 444.948 21.5714 443.729 18.6898 441.793C13.3418 438.197 12.3127 432.601 11.1549 426.79C8.87541 424.728 5.93376 422.17 5.09674 419.131C4.4484 416.775 1.86024 395.933 1.92198 393.382C1.97516 391.18 2.52913 389.3 3.83097 387.473C6.28714 384.03 12.0056 382.638 15.9591 381.997Z" fill="#F6A26B"/>
<path d="M61.7366 277.862C61.9973 277.894 62.2579 277.929 62.5204 277.96C72.3433 279.049 98.7609 274.53 104.682 282.257C105.874 283.813 106.352 285.526 106.606 287.415L105.164 291.428C105.392 294.841 107.395 295.492 108.893 298.146C109.983 300.077 109.8 300.642 109.239 302.594C101.157 308.904 54.5206 306.15 41.9876 306.189C40.4268 305.305 38.9192 304.391 37.5214 303.263C32.4015 299.128 31.7222 293.801 30.9863 287.684C32.2127 285.186 33.4168 282.225 35.602 280.38C41.7236 275.207 54.2085 277.549 61.7366 277.862Z" fill="#172D43"/>
<path d="M293.474 406.225C316.487 404.933 339.385 401.315 362.398 399.809C363.197 412.729 365.024 452.484 359.875 462.909C356.959 465.826 349.266 465.243 345.268 465.278C328.59 465.429 311.899 465.183 295.219 465.163C297.196 455.122 293.74 419.021 293.474 406.225Z" fill="#F6A26B"/>
<path d="M282.51 314.363C284.179 315.579 284.858 316.213 285.344 318.259C287.193 326.039 290.431 398.973 288.812 403.098C288.457 404.005 287.793 404.764 287.284 405.596C286.99 405.463 286.688 405.346 286.404 405.197C284.018 403.944 283.452 403.781 282.862 401.106C281.071 393 279.034 330.04 279.958 320.561C280.202 318.055 281.145 316.452 282.51 314.363Z" fill="#F69E16"/>
<path d="M119.08 70.7717C114.545 68.01 111.853 65.9011 110.657 60.5857C108.746 52.079 114.178 42.145 118.897 35.2364C131.483 16.8041 152.014 6.11234 173.765 2.05855C195.196 -1.93605 220.758 -0.858731 239.153 11.9622C245.664 16.5014 248.05 23.2628 253.021 28.9604C256.902 33.41 262.197 36.6028 265.315 41.7052C268.387 46.7348 270.188 52.5137 271.071 58.2975C273.555 74.5786 269.871 92.4545 264.6 107.882C269.713 117.746 272.205 128.947 268.813 139.833C265.585 150.192 257.662 158.494 247.981 163.371C245.999 164.371 243.935 165.245 241.896 166.121C243.841 182.429 240.86 199.536 245.405 215.42C238.538 232.479 230.786 244.285 213.202 251.795C199.654 257.583 183.196 258.474 169.459 252.759C163.89 250.442 158.925 246.937 156.637 241.224C154.722 236.443 154.87 232.375 156.172 227.488C158.305 226.879 159.067 226.487 160.458 224.767C160.94 219.788 161.151 214.885 161.232 209.884C150.853 207.065 141.839 203.691 134.375 195.599C127.888 188.567 123.746 179.201 121.435 170.045C114.883 144.07 117.406 97.9999 119.08 70.7717Z" fill="#F6A26B"/>
<path d="M119.08 70.7717C114.545 68.01 111.853 65.9011 110.657 60.5857C108.746 52.079 114.178 42.145 118.897 35.2364C131.483 16.8041 152.014 6.11234 173.765 2.05855C195.196 -1.93605 220.758 -0.858731 239.153 11.9622C245.664 16.5014 248.05 23.2628 253.021 28.9604C256.902 33.41 262.197 36.6028 265.315 41.7052C268.387 46.7348 270.188 52.5137 271.071 58.2975C273.555 74.5787 269.871 92.4545 264.6 107.882C262.037 107.322 259.317 106.101 256.823 105.245C244.789 108.301 237.755 116.016 229.147 124.205C217.159 106.006 217.451 84.8205 216.509 63.8649C184.387 74.4619 152.246 79.3376 119.08 70.7717Z" fill="#172D43"/>
<path d="M161.232 209.884C168.881 209.286 177.015 209.343 184.421 207.217C190.968 205.338 198.714 197.939 204.736 199.292C205.654 200.833 205.758 201.538 205.077 203.306C202.554 209.864 183.183 218.973 176.027 221.022C170.94 222.479 164.873 221.892 160.458 224.767C160.94 219.788 161.151 214.885 161.232 209.884Z" fill="#CB6D38"/>
<path d="M153.729 112.945C155.209 113.38 155.498 113.588 156.6 114.555C158.273 121.673 151.448 142.429 150.15 151.136C153.151 152.867 156.82 153.869 159.417 156.185C160.509 157.16 160.142 156.903 160.19 158.57L158.287 160.2C155.462 160.168 152.417 160.288 149.789 159.116C147.198 157.961 145.544 155.878 144.642 153.248C141.702 144.668 149.626 121.19 153.729 112.945Z" fill="#CB6D38"/>
<path d="M148.184 170.699C155.585 170.617 161.609 176.243 169.343 175.45C173.868 174.985 178.149 170.523 182.606 171.193C183.859 172.991 183.639 172.971 183.269 175.154C180.264 177.124 177.169 178.596 173.633 179.394C167.05 180.88 157.414 181.137 151.628 177.077C149.11 175.31 148.673 173.588 148.184 170.699Z" fill="#CB6D38"/>
<path d="M182.598 115.56C184.494 115.627 186.353 115.698 187.933 116.894C189.749 118.267 190.936 120.54 191.269 122.751C191.974 127.427 190.5 131.127 187.799 134.861C185.768 134.822 183.919 134.74 182.235 133.451C180.439 132.078 179.278 129.778 178.972 127.579C178.328 122.959 179.71 119.12 182.598 115.56Z" fill="#172D43"/>
<path d="M128.458 97.5046C132.204 97.5452 135.512 97.8378 139.095 99.025C141.745 99.9027 143.843 100.83 145.109 103.441C144.778 105.426 144.531 105.78 143.257 107.371L140.975 107.549C136.816 107.884 131.892 108.719 127.773 108.244C125.475 107.978 124.466 107.63 123.074 105.839C123.235 102.186 126.012 99.9416 128.458 97.5046Z" fill="#172D43"/>
<path d="M183.243 99.319C189.195 99.1296 194.953 98.7677 200.294 101.829C201.531 103.615 201.512 103.637 201.351 105.796C200.015 107.701 199.761 107.816 197.579 108.707C192.293 108.443 181.237 109.091 177.288 105.631L177.228 103.819C179.058 101.727 180.803 100.648 183.243 99.319Z" fill="#172D43"/>
<path d="M133.079 115.681C134.926 116.025 136.411 116.04 137.943 117.185C139.68 118.482 140.668 120.281 140.917 122.406C141.418 126.693 139.742 130.03 137.252 133.385C136.116 133.204 134.428 133.072 133.368 132.536C131.324 131.503 130.037 129.734 129.537 127.532C128.559 123.228 130.778 119.137 133.079 115.681Z" fill="#172D43"/>
</svg>
