<svg width="321" height="306" viewBox="0 0 321 306" fill="none" xmlns="http://www.w3.org/2000/svg">
<path d="M0.564287 56.3983C1.047 43.3403 -3.52346 16.0044 7.20328 6.84768C10.1013 4.37389 14.0479 1.74358 17.8977 1.23828C34.7722 -0.978604 53.3396 0.45562 70.4147 0.464127L175.624 0.794192L257.872 0.74144C272.168 0.693802 287.601 -0.478417 301.746 1.17021C307.525 1.84565 312.449 5.09524 316.093 9.57835C319.106 13.2839 319.499 19.0413 319.904 23.6725C321.981 47.4729 320.47 73.0292 320.465 97.0542C320.458 124.244 321.744 152.187 320.34 179.295L320.549 249.56C320.577 261.781 321.882 275.455 319.72 287.424C318.954 291.669 316.907 295.218 313.936 298.324C306.731 305.855 297.605 305.754 287.929 305.715C277.612 305.673 266.989 305.729 256.738 304.567C248.489 305.227 239.928 304.902 231.676 304.565C227.498 305.232 223.354 305.409 219.131 305.513C175.066 306.598 130.747 305.518 86.6519 305.613L42.6214 305.727C35 305.741 26.4217 306.44 18.9006 305.172C14.7465 304.471 10.2984 301.222 7.40215 298.301C3.70703 294.574 1.46345 289.95 0.766581 284.756C-0.404505 276.024 0.232879 266.65 0.246477 257.823L0.275369 212.262L0.564287 56.3983Z" fill="#B3D1FF"/>
<path d="M0.564287 56.3983C1.047 43.3403 -3.52346 16.0044 7.20328 6.84768C10.1013 4.37389 14.0479 1.74358 17.8977 1.23828C34.7722 -0.978604 53.3396 0.45562 70.4147 0.464127L175.624 0.794193L257.872 0.74144C272.168 0.693802 287.601 -0.478417 301.746 1.17021C307.525 1.84565 312.449 5.09524 316.093 9.57835C319.106 13.2839 319.499 19.0413 319.904 23.6725C321.981 47.4729 320.47 73.0292 320.465 97.0542C320.458 124.244 321.744 152.187 320.34 179.295C318.586 165.083 319.632 149.698 319.652 135.343L319.735 56.3575L0.564287 56.3983Z" fill="#4F9CDA"/>
<path d="M231.676 304.565C212.47 298.059 197.156 290.222 187.695 271.239C180.251 256.299 180.786 236.189 186.198 220.608C191.837 204.375 204.33 192.406 219.67 185.138C233.422 178.62 249.586 177.189 263.974 182.495C280.442 188.571 293.39 202.184 300.42 218.095C307.107 233.23 306.495 251.28 300.453 266.562C294.599 281.372 280.796 295.436 266.134 301.668C263.082 302.966 259.971 303.864 256.738 304.567C248.49 305.227 239.928 304.902 231.676 304.565Z" fill="#2B6BCC"/>
<path d="M268.826 223.046C270.812 222.884 273.38 222.571 275.219 223.496C277.282 224.536 277.639 225.764 278.375 227.746C278.149 230.195 277.558 231.95 276.315 234.089C272.282 241.029 243.219 270.743 236.296 272.436C229.543 270.976 225.282 265.217 220.661 260.457C217.057 257.001 212.992 253.417 211.559 248.43C210.971 246.381 211.251 245.388 212.157 243.538C214.158 242.211 216.182 241.5 218.614 241.658C224.148 242.021 231.7 251.069 235.706 254.934C246.878 244.568 256.781 232.406 268.826 223.046Z" fill="#F9F9F9"/>
<path d="M54.0877 178.029C64.3895 177.886 98.7062 174.96 105.134 181.86C108.541 185.517 107.791 218.573 106.773 225.347C106.282 228.621 105.371 230.016 102.753 231.979C90.5698 233.039 69.4902 233.487 57.4225 232.328C55.1653 232.112 52.7211 231.967 51.3137 229.989C47.7036 224.919 48.703 191.711 49.7041 184.867C50.2039 181.452 51.4208 180.091 54.0877 178.029Z" fill="#4F9CDA"/>
<path d="M217.973 97.3298C228.353 97.0014 262.956 94.793 270.035 100.433C272.166 105.927 272.139 136.174 271.406 142.836C270.992 146.601 270.052 148.347 267.161 150.775C265.83 150.868 264.507 150.957 263.173 150.993C256.655 151.163 219.09 152.577 216.369 149.441C210.716 142.93 212.616 114.148 213.564 105.592C214.013 101.544 214.814 99.9125 217.973 97.3298Z" fill="#4F9CDA"/>
<path d="M54.7997 97.4251C64.8296 97.1461 99.4591 94.7709 105.967 100.896C107.648 105.508 107.881 139.821 106.894 144.8C106.283 147.874 105.139 149.145 102.59 150.833C89.2643 151.609 71.008 152.539 57.9408 150.982C55.2876 150.668 52.7669 150.225 51.2253 147.85C47.4843 142.086 48.3256 110.939 49.7976 103.538C50.4808 100.098 52.0887 99.2353 54.7997 97.4251Z" fill="#4F9CDA"/>
<path d="M135.547 97.425C147.231 96.7904 169.016 95.7169 179.817 97.7398C182.304 98.206 185.135 99.0073 186.363 101.435C188.035 104.746 187.795 139.949 186.76 144.915C186.072 148.221 184.682 149.184 182.016 150.855C168.533 151.775 152.615 152.379 139.215 150.964C136.625 150.69 133.684 150.302 132.141 147.99C128.512 142.554 129.245 110.429 130.813 103.439C131.551 100.159 132.916 99.1468 135.547 97.425Z" fill="#4F9CDA"/>
<path d="M134.709 178.048C141.919 177.798 181.28 176.054 185.589 180.528C188.099 183.135 187.564 189.682 187.608 193.084C179.229 201.926 174.621 209.024 171.075 220.863L168.131 232.309C158.577 232.296 148.769 233.126 139.25 232.41C136.776 232.224 133.939 232.047 132.375 229.875C128.588 224.621 129.56 194.454 130.317 186.919C130.743 182.674 131.393 180.819 134.709 178.048Z" fill="#4F9CDA"/>
</svg>
