<svg width="261" height="297" viewBox="0 0 261 297" fill="none" xmlns="http://www.w3.org/2000/svg">
<path d="M37.0811 297C22.3663 289.593 9.51262 280.705 4.19954 264.551C2.16862 258.386 1.4365 251.199 1.08078 244.738C-0.811573 210.241 0.770587 174.805 0.74577 140.219C0.727156 111.605 -1.2645 81.6403 1.3393 53.2371C2.17483 44.1029 3.7488 36.1578 8.47659 28.0226C15.6903 15.6116 26.9182 6.55559 41.2029 2.94437C60.172 -1.85189 100.48 0.650284 121.174 0.6683C139.872 0.684314 159.741 -0.622818 178.307 1.25085C189.04 7.91478 246.21 62.8096 255.316 73.8314C257.221 76.1375 258.617 78.4595 259.264 81.3641C261.899 93.2087 260.749 106.452 260.755 118.533L260.776 170.938V220.51C260.791 230.861 261.357 241.615 260.174 251.92C259.159 260.748 257.43 268.875 252.249 276.402C245.418 286.311 234.84 293.297 223.243 297H37.0811Z" fill="#2B6BCC"/>
<path d="M53.7777 23.0814C90.0054 21.2818 127.199 22.5649 163.493 22.8872C164.022 36.8597 160.418 83.5112 169.222 92.345C178.878 102.034 222.919 98.2583 237.816 99.1271C240.07 124.127 238.596 150.383 238.629 175.501C238.66 198.654 240.161 222.833 238.215 245.88C237.81 250.68 237.115 255.224 234.838 259.568C230.172 268.476 221.86 273.74 212.336 276.843C194.226 280.667 143.85 278.445 123.127 278.425C101.752 278.425 74.3371 280.326 53.4612 277.684C48.8947 277.103 44.7005 275.662 40.7255 273.42C32.2875 268.656 27.0324 262.05 24.9518 252.722C22.7658 242.935 23.8866 231.367 23.9011 221.368L23.8805 172.608L23.8391 97.5596C23.8391 83.2269 23.1504 68.5739 24.3623 54.2992C24.8877 48.0937 25.8204 42.3846 29.3963 37.0539C35.1044 28.5503 43.9809 25.1072 53.7777 23.0814Z" fill="#F9F9F9"/>
<path d="M174.971 135.744C178.478 135.868 181.872 136.667 184.656 138.817C187.419 140.953 188.738 143.421 188.912 146.888C189.196 152.551 183.543 157.511 179.856 161.321C170.078 171.424 137.393 205.646 127.11 211.455C124.992 212.65 122.779 212.971 120.363 212.981C118.56 212.987 116.248 212.877 114.556 212.246C106.389 209.199 87.5687 188.085 80.4625 181.094C76.1608 177.001 71.4228 173.319 69.7021 167.534C68.2833 162.766 68.0123 159.463 70.5292 155.047C72.4402 153.48 73.8693 152.677 76.4276 152.459C90.3648 151.266 108.246 176.558 118.494 185.374L119.67 186.377C135.99 173.285 158.457 144.482 174.971 135.744Z" fill="#2B6BCC"/>
</svg>
