<svg width="405" height="374" viewBox="0 0 405 374" fill="none" xmlns="http://www.w3.org/2000/svg">
<path d="M182.9 0.0610775L184.229 0.0280925C203.843 -0.330116 228.382 2.59551 243.077 17.0245C246.897 20.7769 250.144 25.32 253.633 29.4017C274.112 53.3563 268.819 63.735 267.038 92.2613C266.246 104.956 266.999 117.846 266.896 130.571C266.676 158.001 264.228 188.543 247.025 211.023C242.869 216.455 237.371 220.079 233.179 225.104C232.116 226.38 231.682 227.829 232.076 229.397C238.371 233.11 246.331 235.799 253.425 237.572C244.503 252.774 236.76 268.185 234.909 286.004C231.989 314.091 243.686 339.907 260.842 361.338C241.51 359.757 221.668 360.599 202.27 360.601L101.978 360.651L41.3273 360.687C31.2944 360.735 20.7872 361.675 10.8038 360.726C7.75979 360.438 5.17477 359.995 2.54882 358.39C0.938099 356.103 0.378476 354.404 0.141304 351.6C-0.993366 338.21 4.94271 317.692 9.45409 305.22C24.3754 263.979 46.0144 248.421 85.8302 233.213C96.8016 229.023 107.505 224.726 115.146 215.335C115.374 215.052 115.598 214.765 115.825 214.48C116.441 202.491 116.159 190.446 116.081 178.444C111.534 175.577 106.855 172.771 102.802 169.21C89.2189 157.281 84.1325 140.549 88.0518 122.895C88.9169 118.999 91.681 115.246 92.0718 111.334C92.471 107.326 91.7032 102.608 91.4336 98.5652C89.8622 74.9477 91.3944 46.1036 107.862 27.4857C125.808 7.19484 157.384 1.62482 182.9 0.0610775Z" fill="#2B6BCC"/>
<path d="M145.831 83.7836C172.35 85.1164 198.242 83.0409 224.021 76.4105C229.14 75.0938 251.57 67.2816 252.481 68.4557C258.61 76.3533 253.875 158.706 251.094 171.9C247.274 190.041 239.005 205.682 223.248 215.997C211.664 223.582 195.195 226.918 181.644 223.618C172.056 221.281 154.985 210.202 147.075 210.944C145.761 211.894 145.232 211.825 144.891 213.545C144.404 216.002 144.954 217.557 146.331 219.603C152.137 228.227 176.534 235.373 186.59 236.518C193.878 237.348 201.648 236.92 208.815 235.378C211.135 234.878 217.952 232.086 219.735 232.388C220.434 232.507 220.948 233.129 221.554 233.498C223.106 237.901 221.448 242.028 219.881 246.186C211.527 273.93 201.604 301.328 191.921 328.63C176.74 308.371 160.861 288.652 144.316 269.508C134.941 258.576 124.634 248.378 115.855 236.962L120.839 229.574C122.68 226.267 125.697 222.788 126.924 219.302C129.301 212.554 129.802 181.188 127.821 174.603C123.467 160.133 99.9322 161.714 98.9289 137.923C98.7259 133.117 99.393 127.711 101.345 123.283C102.582 120.474 104.693 117.798 107.715 116.843C110.907 115.835 114.447 117.062 117.167 118.767C120.684 120.971 126.096 126.9 129.867 127.465C136.586 122.567 143.672 92.8295 145.831 83.7836Z" fill="#F9F9F9"/>
<path d="M120.839 229.574C121.629 230.782 122.437 231.976 123.264 233.16C132.555 246.438 150.413 253.68 165.759 256.2C175.795 257.849 186.222 257.755 196.069 255.047C201.031 253.681 216.493 245.033 219.882 246.186C211.528 273.93 201.604 301.327 191.921 328.63C176.74 308.371 160.862 288.652 144.316 269.508C134.942 258.576 124.634 248.378 115.855 236.961L120.839 229.574Z" fill="#F9F9F9"/>
<path d="M185.399 182.53C191.789 182.44 207.463 183.234 212.689 186.541C213.904 187.309 213.585 187.735 213.725 189.015L211.758 191.125C206.948 192.597 202.549 193.265 197.538 193.113C193.845 193.001 187.945 192.367 185.647 188.969C184.121 186.711 184.934 184.952 185.399 182.53Z" fill="#2B6BCC"/>
<path d="M178.534 115.397C180.919 115.581 183.195 115.612 184.942 117.526C186.807 119.572 187.41 122.046 187.003 124.732C186.35 129.071 184.403 131.281 180.921 133.71C178.243 133.461 176.059 133.279 174.227 131.037C172.319 128.702 171.952 125.957 172.567 123.082C173.433 119.028 175.247 117.569 178.534 115.397Z" fill="#2B6BCC"/>
<path d="M230.88 114.601C233.388 114.704 235.608 114.756 237.601 116.559C239.452 118.232 240.556 120.388 240.665 122.904C240.853 127.226 239.189 129.886 236.304 132.889C234.139 132.834 231.945 132.837 230.047 131.593C228.184 130.374 226.976 128.259 226.706 126.058C226.17 121.665 228.143 117.825 230.88 114.601Z" fill="#2B6BCC"/>
<path d="M97.2265 250.927C103.369 256.772 101.847 278.777 103.734 288.203C105.393 288.544 107.041 288.939 108.676 289.385C116.743 291.588 124.194 296.343 128.219 303.922C131.883 310.816 132.533 319.829 129.932 327.184C128.187 332.12 124.629 337.461 119.676 339.595C117.756 340.423 116.06 340.674 114.064 339.962C111.805 335.24 119.858 323.377 120.07 317.061C120.198 313.245 119.2 309.297 116.47 306.519C112.313 302.29 105.954 301.236 100.337 301.111L99.1529 301.094C93.4966 302.154 88.4972 303.166 84.7809 308.004C73.6458 322.495 91.7084 331.754 92.1401 339.169C92.2254 340.66 92.1213 340.248 91.0259 341.555C88.3027 342.35 85.7484 341.782 83.1532 340.756C77.903 338.679 74.3386 333.321 72.2535 328.232C69.3972 321.305 69.4586 313.507 72.4241 306.626C76.5686 297.002 83.9705 292.779 93.1554 289.162C90.5584 273.631 94.5852 265.575 97.2265 250.927Z" fill="#F9F9F9"/>
<path d="M317.001 216.986C359.855 211.585 398.958 242.157 404.374 285.302C409.789 328.445 379.472 367.853 336.629 373.357C293.715 378.872 254.496 348.284 249.072 305.066C243.646 261.849 274.072 222.398 317.001 216.986Z" fill="#2B6BCC"/>
<path d="M362.9 266.742C365.493 266.903 367.955 267.025 370.172 268.558C371.886 269.743 372.936 271.977 372.897 274.047C372.82 278.229 369.475 282.64 366.894 285.628C361.383 292.002 329.1 325.734 323.406 325.464C315.062 325.069 301.986 308.658 296.128 302.647C292.726 299.317 287.854 295.39 286.948 290.463C286.469 287.868 287.409 284.563 289.074 282.51C290.513 280.737 291.942 279.991 294.215 279.904C303.274 279.562 317.055 297.476 323.357 303.375C335.418 292.308 348.401 273.891 362.9 266.742Z" fill="#F9F9F9"/>
</svg>
