<svg width="395" height="463" viewBox="0 0 395 463" fill="none" xmlns="http://www.w3.org/2000/svg">
<path d="M101.059 156.208C96.1313 149.003 90.7455 142.305 86.6986 134.518C76.4295 114.761 72.8527 86.2389 76.84 64.4336C80.4646 44.0709 92.1746 26.0356 109.309 14.426C133.263 -1.87396 166.904 -2.29588 194.385 3.08869C210.705 6.2888 225.391 11.7874 234.921 26.3214C245.852 42.9889 242.48 56.8645 240.903 75.2214C240.235 82.9929 240.753 90.783 240.489 98.5579C240.366 102.173 239.576 105.986 240.042 109.586C241.838 123.443 252.493 137.815 248.951 152.172C247.9 156.431 244.965 160.51 241.059 162.582C238.913 163.72 236.459 164.43 234.2 165.309C231.782 182.95 226.416 201.838 211.586 213.308C202.983 219.962 194.095 219.74 183.829 218.99C185.882 223.631 188.464 228.502 189.965 233.325C205.739 238.985 217.098 250.158 224.151 265.268C235.607 289.816 238.292 319.49 238.217 346.346C248.736 343.24 259.77 342.548 270.335 339.669L270.795 345.889C274.513 361.299 277.102 377.055 280.156 392.613C281.674 400.338 282.846 408.772 285.62 416.14C288.429 418.404 290.582 419.677 294.074 420.623C281.268 428.156 254.401 435.448 239.434 438.595C238.69 444.859 239.511 455.884 235.44 460.708C224.451 464.201 177.306 462.859 163.639 462.11C150.006 462.942 136.339 462.997 122.701 462.275C98.9161 463.038 74.9681 462.349 51.1666 462.354C36.9204 462.357 20.9522 463.759 6.86274 461.853C5.55803 461.676 3.8156 461.731 3.10533 460.504C1.10399 457.049 0.797407 450.938 0.581091 446.948C-0.621419 424.631 0.415875 401.711 0.412469 379.334C0.409062 355.891 -0.713397 331.714 1.08015 308.342C1.8892 297.8 3.79515 286.574 6.68731 276.417C14.1391 250.256 33.4031 229.305 56.5148 215.572C64.0144 211.117 72.0674 207.763 79.6845 203.531C82.3262 197.105 87.5689 195.958 93.5423 193.377C97.0919 181.21 100.178 168.899 101.059 156.208Z" fill="#B3D1FF"/>
<path d="M101.059 156.208C96.1311 149.003 90.7453 142.305 86.6984 134.518C76.4293 114.761 72.8525 86.2389 76.8398 64.4336C80.4644 44.0709 92.1744 26.0356 109.309 14.426C133.262 -1.87396 166.904 -2.29588 194.384 3.08869C210.705 6.2888 225.391 11.7874 234.921 26.3214C245.852 42.9889 242.48 56.8646 240.902 75.2214C240.235 82.9929 240.753 90.783 240.489 98.5579C240.366 102.173 239.576 105.986 240.042 109.586C241.838 123.443 252.493 137.815 248.95 152.172C247.899 156.431 244.965 160.51 241.059 162.582C238.913 163.72 236.459 164.43 234.2 165.31C231.781 182.95 226.416 201.838 211.586 213.308C202.983 219.962 194.095 219.74 183.829 218.99C185.882 223.631 188.464 228.502 189.964 233.325C205.738 238.985 217.097 250.158 224.151 265.268C235.607 289.816 238.291 319.49 238.216 346.347C225.774 352.398 209.823 354.009 196.607 358.324L193.913 358.701L193.054 357.347C191.433 357.522 190.406 357.281 188.854 356.809C181.991 350.617 175.342 332.547 171.109 323.66C165.856 314.786 162.491 305.65 156.224 297.241C131.782 273.448 114.881 255.209 95.041 227.229C89.6893 219.683 83.7738 211.835 79.6843 203.531C82.326 197.105 87.5687 195.958 93.5421 193.377C97.0917 181.21 100.178 168.899 101.059 156.208Z" fill="#245EB7"/>
<path d="M189.964 233.325C205.738 238.985 217.097 250.158 224.151 265.269C235.607 289.816 238.291 319.49 238.216 346.347C225.774 352.398 209.823 354.009 196.607 358.324L193.913 358.701L193.054 357.347C194.093 351.486 193.494 345.591 193.163 339.688C195.732 323.047 193.873 303.411 192.713 286.633C193.393 283.615 194.25 280.619 195.025 277.623C197.36 262.565 193.165 247.956 189.964 233.325Z" fill="#B3D1FF"/>
<path d="M195.025 277.623C198.156 282.851 196.439 347.15 196.608 358.324L193.913 358.701L193.055 357.347C194.094 351.486 193.494 345.591 193.163 339.688C195.732 323.047 193.874 303.411 192.714 286.633C193.393 283.615 194.25 280.619 195.025 277.623Z" fill="#ECF2F7"/>
<path d="M177.689 293.799C182.225 292.353 189.852 290.59 192.714 286.633C193.873 303.411 195.732 323.047 193.163 339.688C189.733 335.397 180.574 302.059 177.689 293.799Z" fill="#4F9CDA"/>
<path d="M156.224 297.241L165.131 296.455C167.939 304.823 172.341 314.772 171.109 323.66C165.856 314.786 162.49 305.65 156.224 297.241Z" fill="#4F9CDA"/>
<path d="M147.098 66.1212C169.719 70.5582 206.123 75.6876 227.685 65.7827C229.571 81.3001 226.684 98.1325 228.419 111.198C229.238 117.379 231.446 123.487 233.277 129.429C235.082 135.289 239.458 145.751 236.443 151.449C232.706 153.089 228.21 152.696 224.18 152.781L221.112 170.946C214.118 169.74 208.566 168.062 201.824 170.939L200.535 172.519C201.09 175.139 202.345 176.327 204.606 177.751C208.806 180.398 213.623 181.167 218.426 182.045C214.727 190.89 209.767 201.872 200.261 205.701C192.676 208.757 183.46 206.105 176.348 202.847C170.666 200.244 166.638 197.123 160.084 198.008L159.033 199.031C159.655 207.018 171.068 209.378 172.836 221.292C176.895 229.278 182.407 254.96 183.126 264.076C183.429 267.936 183.672 274.275 180.474 277.152C175.258 281.842 164.185 281.192 157.662 281.434C141.54 268.484 105.409 224.194 96.2759 206.037L96.8328 204.732L99.9328 203.946C109.856 192.744 111.239 173.63 113.303 159.246C116.55 158.416 119.36 157.97 121.825 155.59C122.157 154.551 122.699 153.935 122.097 152.897C116.899 143.936 95.9659 145.447 99.2753 123.385C100.195 117.264 102.721 110.814 107.887 107.066C111.062 104.763 114.811 103.726 118.696 104.516C127.483 106.302 131.096 119.429 138.284 118.949C143.62 114.589 144.322 104.434 144.996 97.9369C146.091 87.3924 146.504 76.7049 147.098 66.1212Z" fill="#B3D1FF"/>
<path d="M157.662 281.434C141.54 268.484 105.409 224.194 96.2759 206.036L96.8328 204.732L99.9328 203.946C120.995 217.976 142.86 233.192 167.261 240.748C169.11 234.276 170.789 227.699 172.836 221.292C176.895 229.278 182.407 254.96 183.126 264.076C183.429 267.936 183.672 274.275 180.474 277.152C175.258 281.842 164.185 281.192 157.662 281.434Z" fill="#4F9CDA"/>
<path d="M199.86 101.445C202.267 101.649 204.594 102.188 206.277 104.065C207.856 105.826 208.523 108.133 208.295 110.46C207.931 114.191 206.231 116.445 203.5 118.854C200.714 118.487 198.317 118.323 196.36 116.032C194.466 113.815 193.819 111.195 194.412 108.374C195.164 104.795 196.917 103.276 199.86 101.445Z" fill="#245EB7"/>
<path d="M122.7 462.275C115.463 458.027 107.926 455.285 100.958 450.293C73.3173 430.497 49.865 403.326 31.2397 375.163C27.6883 369.795 23.4897 364.222 21.0455 358.249C19.8601 355.35 19.298 352.959 20.5959 350.059C22.4269 349.958 22.8885 350.11 24.4572 351.228C31.0131 355.889 45.8503 380.406 51.8884 388.358C66.3816 407.445 85.3697 426.896 105.249 440.446C113.876 446.328 123.949 451.61 134.47 452.782C167.823 456.498 247.748 423.216 285.62 416.14C288.429 418.404 290.582 419.677 294.073 420.623C281.268 428.156 254.401 435.448 239.434 438.595C238.69 444.859 239.511 455.884 235.44 460.709C224.45 464.201 177.306 462.859 163.638 462.11C150.005 462.942 136.338 462.997 122.7 462.275Z" fill="#A3C4E5"/>
<path d="M163.639 462.11C169.261 458.141 228.596 440.752 239.434 438.595C238.69 444.859 239.511 455.884 235.44 460.708C224.451 464.201 177.306 462.859 163.639 462.11Z" fill="#B3D1FF"/>
<path d="M151.342 372.106C137.469 356.272 125.097 339.407 112.469 322.588C107.938 316.554 102.13 310.308 98.4353 303.767C97.1697 301.526 96.3931 298.745 96.4936 296.162C96.5702 294.199 96.7252 293.83 97.9873 292.458C101.169 292.869 103.685 295.834 105.569 298.231C108.841 302.397 111.44 307.071 114.594 311.338C128.955 330.754 143.989 351.24 160.426 368.989C171.673 365.77 182.836 362.47 193.912 358.701L196.607 358.324C209.823 354.009 225.774 352.398 238.216 346.347C248.736 343.24 259.769 342.548 270.335 339.669L270.795 345.889C237.913 355.445 205.111 365.275 172.393 375.377C161.894 378.651 151.477 382.917 141.026 386.026C138.665 386.727 135.114 386.25 132.932 385.127C131.14 384.205 130.854 383.906 129.965 382.123C130.935 379.682 132.346 378.688 134.758 377.65C140.119 375.347 145.975 374.423 151.342 372.106Z" fill="#A3C4E5"/>
<path d="M270.335 339.669C284.31 334.24 294.426 321.167 309.057 317.625C316.356 315.858 329.539 318.32 334.639 312.183C335.049 310.25 335.555 309.281 334.41 307.482C332.622 304.675 328.311 301.655 325.79 299.406C315.978 290.652 311.353 279.498 312.327 266.112C313.106 255.399 318.013 245.355 326.376 238.529C335.511 231.076 347.74 227.941 359.38 229.368C370.138 230.659 379.901 236.277 386.418 244.923C393.401 254.38 396.299 266.24 394.459 277.848C392.626 288.892 386.476 298.328 377.328 304.699C367.375 311.63 350.544 311.438 347.801 313.498C352.765 321.63 372.286 322.467 367.922 339.499C366.859 343.647 363.199 346.677 362.123 350.768C360.779 355.877 360.617 361.646 359.735 366.896C357.488 380.263 347.466 389.256 336.068 395.383C323.504 402.133 309.473 405.555 295.819 409.362C295.538 413.173 295.557 417.059 294.073 420.623C290.582 419.677 288.429 418.404 285.62 416.14C282.845 408.772 281.674 400.338 280.156 392.613C277.102 377.055 274.513 361.299 270.795 345.889L270.335 339.669Z" fill="#245EB7"/>
<path d="M327.075 328.196C333.855 328.082 346.553 327.975 352.38 331.765C354.593 333.204 354.802 334.295 355.479 336.767C353.239 345.913 336.247 341.668 329.401 346.786C328.567 348.89 328.759 349.021 329.41 351.224C332.99 355.1 342.236 352.473 347.119 353.468C348.538 353.758 348.417 354.292 349.078 355.452C347.652 364.51 333.518 361.369 328.935 370.199C328.303 371.415 328.725 371.857 329.051 373.081C333.469 376.684 339.285 375.411 344.578 375.039C340.636 377.962 336.495 380.585 332.384 383.259C320.175 389.367 307.012 394.462 293.461 396.545L284.198 348.099C298.1 335.697 307.913 329.512 327.075 328.196Z" fill="#B3D1FF"/>
<path d="M349.503 250.925C360.32 248.746 370.872 255.683 373.148 266.466C375.423 277.251 368.571 287.851 357.794 290.218C354.427 290.958 350.925 290.82 347.628 289.818C338.818 287.14 332.956 278.828 333.398 269.641C333.841 260.454 340.477 252.744 349.503 250.925Z" fill="#ECF2F7"/>
<path d="M348.573 258.313C353.247 256.595 358.488 257.565 362.237 260.842C365.986 264.118 367.643 269.178 366.558 274.033C365.473 278.889 361.819 282.766 357.033 284.139C349.992 286.16 342.613 282.254 340.336 275.301C338.059 268.348 341.699 260.84 348.573 258.313Z" fill="#245EB7"/>
</svg>
