<svg width="336" height="320" viewBox="0 0 336 320" fill="none" xmlns="http://www.w3.org/2000/svg">
<path d="M132.46 246.475C106.555 245.164 80.2585 246.07 54.3113 246.123C44.3634 246.144 33.2997 247.269 23.5071 245.848C17.8959 245.034 11.5768 243.469 7.69727 239.043C3.95593 234.748 1.5384 229.459 0.738273 223.817C-0.512253 214.615 0.212888 204.517 0.175355 195.195L0.0490477 139.753L0.233355 64.326C0.281124 51.1102 -0.51904 37.1745 0.670069 24.0313C1.27401 17.3635 3.88084 10.8929 9.12008 6.53092C13.566 2.82868 18.5187 1.34397 24.1895 0.788434C37.9709 -0.561543 52.7606 0.451149 66.6443 0.474374L158.491 0.910022L262.271 0.42485C278.875 0.404699 296.811 -0.920514 313.244 1.21469C320.646 2.17666 324.613 3.35501 329.413 9.56115C333.112 14.3398 334.755 19.862 335.41 25.7967C336.683 37.3447 335.518 49.9981 335.402 61.6611C335.216 80.5251 335.53 99.4053 335.547 118.273L335.579 189.16C335.581 200.68 336.652 213.415 335.076 224.793C334.124 231.665 330.521 237.236 324.996 241.383C321.603 243.929 318.068 245.269 313.883 245.9C305.442 247.168 296.291 246.345 287.745 246.219C271.792 245.983 255.851 246.144 239.899 246.091C228.023 246.052 214.367 244.907 202.743 247.211C202.636 250.852 202.465 254.502 202.455 258.142C194.972 256.329 142.771 257.336 132.335 257.589L132.46 246.475ZM30.5599 211.408C121.42 211.343 212.493 212.733 303.328 211.331L305.116 211.186C307.068 203.175 305.481 174.181 305.508 163.998C305.621 119.627 306.894 74.8446 305.319 30.5233L124.87 30.4548C93.6986 30.4569 62.2393 29.6081 31.1024 30.666C29.4697 39.8999 30.1317 49.9327 30.1299 59.304L30.1385 101.057C30.1607 136.545 28.6252 176.314 30.5599 211.408Z" fill="#2B6BCC"/>
<path d="M132.46 246.475C145.607 248.694 189.44 248.803 202.744 247.211C202.636 250.852 202.466 254.502 202.455 258.143C194.973 256.329 142.771 257.337 132.335 257.589L132.46 246.475Z" fill="#172D43"/>
<path d="M131.658 90.7344C135.149 90.8741 138.133 91.2993 141.47 92.3473C147.627 94.2805 156.167 91.6752 164.048 92.1219C162.911 99.8922 162.183 107.715 161.867 115.563C161.39 126.374 163.653 147.38 158.544 156.533C155.152 162.609 148.587 166.664 141.942 168.24C134.949 169.898 121.386 170.108 115.287 165.907C112.866 164.24 111.833 163.333 111.195 160.516C111.72 158.844 112.322 157.238 112.938 155.597C118.162 151.697 127.318 157.148 133.735 156.277C139.211 155.534 141.635 153.029 144.962 148.823L145.916 138.028C141.83 140.689 137.769 142.661 132.948 143.59C127.917 144.562 122.604 143.845 118.339 140.877C113.404 137.442 110.84 131.544 109.883 125.77C108.448 117.106 109.333 106.904 114.76 99.7163C119.201 93.8382 124.618 91.8931 131.658 90.7344ZM138.643 131.129C143.234 128.54 144.993 125.971 146.329 120.846C147.47 116.469 147.182 111.77 144.631 107.917C143.423 106.09 141.635 104.524 139.428 104.151C137.507 103.827 135.19 104.109 133.233 104.192C128.719 107.82 126.278 111.341 125.68 117.241C125.303 120.954 125.948 124.863 128.504 127.725C130.452 129.885 133.201 131.153 136.108 131.228C137.031 131.253 137.679 131.187 138.643 131.129Z" fill="#01674C"/>
<path d="M192.013 90.4834C207.457 87.9481 222.076 98.2936 224.838 113.715C227.602 129.136 217.487 143.921 202.124 146.918C191.98 148.898 181.558 145.252 174.851 137.379C168.147 129.508 166.197 118.63 169.752 108.916C173.306 99.2021 181.814 92.1577 192.013 90.4834ZM200.662 133.47C205.028 129.81 206.947 126.033 207.59 120.305C208.082 115.933 207.172 111.308 204.359 107.835C202.759 105.857 200.741 104.329 198.137 104.057C196.237 103.859 194.256 104.021 192.359 104.185C188.048 107.147 186.444 109.929 185.492 115.118C184.636 119.782 185.108 125.1 187.816 129.117C189.174 131.134 191.453 133.246 193.918 133.743C196.266 134.218 198.357 133.881 200.662 133.47Z" fill="#01674C"/>
<path d="M82.751 91.387C83.4095 91.3363 84.0698 91.2929 84.7317 91.2569C91.7248 90.8933 96.9998 91.9251 102.256 96.9119C104.837 99.3609 107.156 103.055 107.009 106.732C106.743 113.339 97.9125 119.196 92.0011 120.079C85.9566 120.981 76.8857 118.88 72.3357 123.356C71.9143 125.539 72.095 127.006 72.8457 129.062C77.4179 141.575 92.936 128.878 100.386 132.587C100.893 134.896 101.714 137.457 100.531 139.684C99.0402 142.497 95.1795 143.868 92.3526 144.905C84.9774 147.608 76.3295 148.334 69.1607 144.604C63.7525 141.792 59.9959 136.807 58.3291 130.983C55.9508 122.672 57.5682 112.692 61.98 105.321C66.8456 97.1869 73.7892 93.4162 82.751 91.387ZM84.5781 112.567C87.5859 112.015 89.4626 111.814 91.5866 109.507C92.3884 107.152 92.4123 107.003 91.7043 104.622C89.8123 102.585 88.3826 101.468 85.4994 101.367C84.6429 101.337 83.7849 101.386 82.9284 101.419C79.6853 103.601 75.804 105.908 74.7582 109.918C75.3024 111.026 75.3331 111.793 76.5819 112.273C78.9294 113.171 82.101 112.7 84.5781 112.567Z" fill="#01674C"/>
<path d="M221.346 92.2412C225.343 91.9591 230.854 90.9659 234.546 92.7143C236.897 93.8294 238.92 95.9436 240.08 98.2593C243.161 104.412 245.896 118.607 249.242 126.878C254.29 116.416 256.769 101.723 264.487 93.0421C268.818 91.2256 275.419 91.9726 280.181 91.901C278.389 96.4064 276.182 100.785 274.134 105.181C269.318 115.935 261.477 137.005 253.602 144.949C249.484 146.433 244.64 145.9 240.304 145.878C234.604 127.88 227.575 110.089 221.346 92.2412Z" fill="#01674C"/>
<path d="M132.336 257.589C142.771 257.337 194.973 256.329 202.455 258.143L202.604 290.272C212.818 290.136 237.716 287.752 245.367 293.24C248.206 295.276 249.585 298.253 249.999 301.67C250.556 306.238 249.941 311.317 246.809 314.902C243.479 318.713 239.215 319.075 234.469 319.249C203.259 320.39 171.641 319.157 140.395 319.077C126.793 319.043 111.821 321.008 98.4469 319.304C94.7039 318.828 90.6674 317.487 87.9496 314.751C85.1978 311.981 84.2304 308.345 84.2645 304.525C84.3004 300.594 85.4025 296.898 88.4171 294.214C96.27 287.227 121.971 290.1 132.457 290.277L132.336 257.589Z" fill="#2B6BCC"/>
</svg>
