<svg width="721" height="952" viewBox="0 0 721 952" fill="none" xmlns="http://www.w3.org/2000/svg">
<g opacity="0.11">
<path d="M0.42717 762.76C0.792588 752.859 -2.66729 732.134 5.45295 725.192C7.64674 723.316 10.6344 721.322 13.5487 720.939C26.3229 719.258 40.3786 720.345 53.3046 720.352L132.949 720.602L195.211 720.562C206.034 720.526 217.717 719.637 228.424 720.887C232.799 721.399 236.527 723.863 239.285 727.262C241.567 730.071 241.864 734.437 242.17 737.948C243.742 755.993 242.598 775.369 242.595 793.584C242.589 814.198 243.564 835.384 242.501 855.936L242.659 909.209C242.68 918.474 243.668 928.841 242.031 937.916C241.451 941.134 239.902 943.825 237.652 946.181C232.198 951.89 225.29 951.814 217.965 951.784C210.155 951.752 202.113 951.794 194.353 950.913C188.109 951.414 181.628 951.167 175.381 950.912C172.218 951.418 169.081 951.552 165.884 951.63C132.527 952.453 98.9766 951.634 65.5963 951.707L32.2648 951.793C26.4953 951.803 20.0015 952.333 14.3079 951.372C11.1633 950.841 7.796 948.377 5.6035 946.162C2.80626 943.338 1.10785 939.832 0.580309 935.893C-0.306214 929.273 0.176292 922.166 0.186585 915.474L0.208457 880.931L0.42717 762.76Z" fill="#B3D1FF"/>
<path d="M0.42717 762.76C0.792588 752.859 -2.66729 732.134 5.45295 725.192C7.64674 723.316 10.6344 721.322 13.5487 720.939C26.3229 719.258 40.3786 720.345 53.3046 720.352L132.949 720.602L195.211 720.562C206.034 720.526 217.717 719.637 228.424 720.887C232.799 721.399 236.527 723.863 239.285 727.262C241.567 730.071 241.864 734.437 242.17 737.948C243.742 755.993 242.598 775.369 242.595 793.584C242.589 814.198 243.564 835.384 242.501 855.936C241.173 845.161 241.964 833.496 241.98 822.613L242.043 762.729L0.42717 762.76Z" fill="#4F9CDA"/>
<path d="M175.381 950.912C160.841 945.979 149.248 940.038 142.087 925.645C136.451 914.318 136.856 899.071 140.953 887.258C145.222 874.951 154.68 865.876 166.292 860.366C176.702 855.424 188.939 854.339 199.83 858.362C212.297 862.969 222.099 873.289 227.421 885.353C232.483 896.828 232.019 910.513 227.445 922.099C223.014 933.328 212.565 943.99 201.466 948.715C199.155 949.699 196.8 950.381 194.353 950.913C188.109 951.414 181.628 951.167 175.381 950.912Z" fill="#2B6BCC"/>
<path d="M203.504 889.107C205.007 888.984 206.951 888.747 208.343 889.448C209.905 890.236 210.175 891.168 210.732 892.671C210.561 894.527 210.114 895.858 209.173 897.479C206.12 902.741 184.119 925.27 178.878 926.553C173.766 925.446 170.54 921.08 167.042 917.471C164.314 914.851 161.236 912.133 160.152 908.352C159.707 906.799 159.919 906.046 160.605 904.644C162.119 903.638 163.652 903.098 165.493 903.218C169.682 903.493 175.399 910.353 178.432 913.284C186.889 905.424 194.385 896.204 203.504 889.107Z" fill="#F9F9F9"/>
<path d="M40.9459 854.976C48.7445 854.868 74.7225 852.649 79.5888 857.881C82.1673 860.653 81.5998 885.715 80.8291 890.852C80.4573 893.333 79.7676 894.391 77.7861 895.88C68.5632 896.683 52.6058 897.023 43.4704 896.144C41.7617 895.98 39.9114 895.871 38.846 894.37C36.1131 890.526 36.8697 865.35 37.6275 860.16C38.0058 857.571 38.9271 856.54 40.9459 854.976Z" fill="#4F9CDA"/>
<path d="M165.009 793.793C172.867 793.544 199.061 791.869 204.42 796.145C206.033 800.311 206.013 823.243 205.458 828.294C205.144 831.149 204.433 832.472 202.244 834.313C201.237 834.384 200.236 834.451 199.226 834.478C194.291 834.607 165.854 835.679 163.794 833.302C159.515 828.365 160.953 806.544 161.671 800.057C162.011 796.988 162.617 795.751 165.009 793.793Z" fill="#4F9CDA"/>
<path d="M41.4848 793.865C49.0775 793.653 75.2923 791.852 80.219 796.496C81.4915 799.993 81.6678 826.008 80.9203 829.783C80.4584 832.114 79.5924 833.077 77.6624 834.357C67.5748 834.945 53.7546 835.651 43.8626 834.47C41.8541 834.232 39.9459 833.896 38.7789 832.096C35.9469 827.725 36.5838 804.111 37.6981 798.499C38.2153 795.891 39.4325 795.237 41.4848 793.865Z" fill="#4F9CDA"/>
<path d="M102.61 793.865C111.455 793.384 127.946 792.57 136.123 794.103C138.005 794.457 140.149 795.064 141.078 796.905C142.344 799.415 142.163 826.105 141.379 829.87C140.858 832.377 139.806 833.107 137.788 834.373C127.581 835.071 115.531 835.529 105.387 834.456C103.426 834.248 101.2 833.954 100.032 832.201C97.2846 828.08 97.8392 803.724 99.0268 798.425C99.5852 795.938 100.618 795.17 102.61 793.865Z" fill="#4F9CDA"/>
<path d="M101.976 854.99C107.434 854.801 137.231 853.479 140.493 856.871C142.393 858.847 141.988 863.811 142.021 866.391C135.678 873.095 132.19 878.476 129.506 887.451L127.277 896.13C120.045 896.12 112.619 896.749 105.414 896.206C103.54 896.066 101.393 895.931 100.209 894.284C97.3425 890.301 98.0785 867.429 98.6511 861.716C98.974 858.498 99.4655 857.092 101.976 854.99Z" fill="#4F9CDA"/>
</g>
<g opacity="0.37">
<path d="M530.463 9.04938C534.195 8.78343 537.852 9.63939 541.468 10.476C558.268 14.3629 574.902 20.0952 591.392 25.1589C601.023 28.1166 612.031 30.4401 621.008 34.9149C624.204 36.5084 625.499 37.556 626.576 41.0241C627.244 43.1743 627.57 45.4773 627.705 47.7201C628.431 59.708 627.586 72.0976 627.597 84.1394C627.612 101.445 628.97 119.951 626.585 137.07C625.523 145.272 623.047 153.228 619.267 160.585C607.166 184.153 580.029 204.044 558.091 218.207C550.572 223.062 542.753 228.245 534.191 231C524.419 230.704 514.308 223.004 506.255 217.893C479.275 200.77 445.25 175.379 438.103 142.57C435.822 132.1 436.403 121.128 436.42 110.477L436.495 75.2857C436.499 65.7548 435.402 55.4045 436.461 45.9963C436.779 43.1721 437.465 40.1369 439.158 37.7897C440.642 35.7343 443.425 34.5757 445.715 33.6358C456.229 29.3182 467.892 26.5382 478.804 23.2381C494.858 18.3833 514.176 11.3169 530.463 9.04938Z" fill="#245EB7"/>
<path d="M517.445 66.4934C523.192 66.376 543.004 64.8568 546.98 67.7369C551.751 71.1931 549.392 89.2968 549.848 95.1702L549.912 95.9519C556.991 96.3707 574.937 94.171 579.899 98.1634C581.204 100.599 581.256 122.35 580.686 125.956C578.866 137.483 556.71 127.117 550.992 132.501C547.254 136.022 550.38 151.308 549.524 156.666C549.124 159.164 548.301 160.293 546.244 161.727C541.424 162.242 520.107 163.429 516.583 161.231C515.507 160.56 514.948 159.22 514.686 158.048C513.232 151.541 515.193 140.175 514.118 132.573C511.454 128.633 490.894 134.234 485.483 129.453C483.892 128.046 483.475 125.783 483.457 123.765C483.403 118.211 483.182 105.668 483.877 100.729C484.026 99.6729 484.483 98.8245 485.257 98.0945C489.356 94.2291 508.173 96.1241 514.464 96.0972C514.659 89.4238 514.309 82.7289 514.416 76.0523C514.476 72.2042 514.555 69.2809 517.445 66.4934Z" fill="#B3D1FF"/>
</g>
<g opacity="0.28">
<path d="M483.258 473.803C483.479 467.829 481.386 455.322 486.299 451.133C487.626 450.001 489.433 448.798 491.196 448.567C498.924 447.552 507.427 448.208 515.246 448.212L563.426 448.363L601.091 448.339C607.638 448.317 614.705 447.781 621.183 448.535C623.829 448.844 626.084 450.331 627.753 452.382C629.133 454.078 629.313 456.712 629.498 458.831C630.449 469.72 629.757 481.412 629.755 492.404C629.752 504.844 630.341 517.628 629.698 530.03L629.794 562.178C629.806 567.769 630.404 574.025 629.414 579.501C629.063 581.443 628.126 583.067 626.765 584.488C623.466 587.933 619.287 587.888 614.855 587.87C610.131 587.85 605.266 587.876 600.572 587.344C596.794 587.646 592.874 587.498 589.095 587.343C587.181 587.649 585.284 587.73 583.35 587.777C563.171 588.274 542.875 587.779 522.682 587.823L502.518 587.875C499.028 587.881 495.1 588.201 491.655 587.621C489.753 587.301 487.716 585.814 486.39 584.477C484.698 582.773 483.67 580.657 483.351 578.28C482.815 574.286 483.107 569.997 483.113 565.958L483.126 545.113L483.258 473.803Z" fill="#B3D1FF"/>
<path d="M483.258 473.803C483.479 467.829 481.386 455.322 486.299 451.133C487.626 450.001 489.433 448.798 491.196 448.567C498.924 447.552 507.427 448.208 515.246 448.212L563.426 448.363L601.091 448.339C607.638 448.317 614.705 447.781 621.183 448.535C623.829 448.844 626.084 450.331 627.753 452.382C629.133 454.078 629.313 456.712 629.498 458.831C630.449 469.72 629.757 481.412 629.755 492.404C629.752 504.844 630.341 517.628 629.698 530.03C628.895 523.528 629.373 516.489 629.383 509.922L629.421 473.784L483.258 473.803Z" fill="#4F9CDA"/>
<path d="M589.095 587.343C580.3 584.367 573.287 580.781 568.954 572.096C565.545 565.261 565.79 556.06 568.268 548.932C570.851 541.505 576.572 536.029 583.597 532.703C589.894 529.721 597.297 529.067 603.886 531.494C611.427 534.274 617.357 540.502 620.576 547.782C623.638 554.706 623.358 562.965 620.591 569.956C617.91 576.732 611.589 583.166 604.875 586.018C603.477 586.612 602.052 587.023 600.572 587.344C596.795 587.646 592.874 587.498 589.095 587.343Z" fill="#2B6BCC"/>
<path d="M606.107 550.047C607.016 549.973 608.192 549.83 609.034 550.253C609.979 550.729 610.143 551.291 610.48 552.198C610.376 553.318 610.105 554.121 609.536 555.1C607.689 558.275 594.38 571.87 591.21 572.644C588.118 571.976 586.166 569.341 584.05 567.163C582.4 565.582 580.538 563.942 579.882 561.661C579.612 560.724 579.741 560.269 580.156 559.423C581.072 558.816 581.999 558.49 583.113 558.563C585.647 558.729 589.105 562.868 590.94 564.637C596.056 559.894 600.591 554.33 606.107 550.047Z" fill="#F9F9F9"/>
<path d="M507.768 529.451C512.486 529.386 528.201 528.047 531.145 531.204C532.705 532.877 532.361 548.001 531.895 551.1C531.67 552.598 531.253 553.236 530.054 554.134C524.475 554.619 514.822 554.824 509.295 554.294C508.262 554.195 507.142 554.129 506.498 553.224C504.845 550.904 505.302 535.711 505.761 532.58C505.99 531.017 506.547 530.395 507.768 529.451Z" fill="#4F9CDA"/>
<path d="M582.819 492.53C587.572 492.38 603.418 491.369 606.66 493.95C607.636 496.463 607.624 510.302 607.288 513.35C607.098 515.073 606.668 515.871 605.344 516.982C604.734 517.025 604.129 517.065 603.518 517.082C600.533 517.16 583.33 517.806 582.084 516.372C579.495 513.393 580.365 500.225 580.8 496.31C581.005 494.458 581.372 493.712 582.819 492.53Z" fill="#4F9CDA"/>
<path d="M508.096 492.573C512.689 492.446 528.548 491.359 531.528 494.161C532.298 496.272 532.405 511.97 531.952 514.248C531.673 515.655 531.149 516.236 529.981 517.008C523.879 517.363 515.519 517.789 509.535 517.077C508.32 516.933 507.165 516.73 506.459 515.644C504.746 513.007 505.131 498.756 505.806 495.37C506.118 493.796 506.855 493.402 508.096 492.573Z" fill="#4F9CDA"/>
<path d="M545.074 492.574C550.424 492.283 560.401 491.792 565.347 492.718C566.486 492.931 567.783 493.298 568.344 494.408C569.11 495.923 569.001 512.029 568.527 514.301C568.211 515.814 567.575 516.254 566.354 517.019C560.179 517.44 552.89 517.716 546.753 517.068C545.567 516.943 544.221 516.766 543.514 515.708C541.852 513.221 542.188 498.523 542.906 495.325C543.244 493.825 543.869 493.361 545.074 492.574Z" fill="#4F9CDA"/>
<path d="M544.689 529.46C547.991 529.345 566.016 528.547 567.99 530.595C569.139 531.787 568.894 534.782 568.914 536.339C565.077 540.385 562.967 543.632 561.343 549.048L559.995 554.285C555.62 554.279 551.128 554.659 546.769 554.331C545.636 554.246 544.337 554.166 543.621 553.171C541.886 550.768 542.332 536.966 542.678 533.518C542.873 531.576 543.171 530.728 544.689 529.46Z" fill="#4F9CDA"/>
</g>
<g opacity="0.37">
<path d="M640.735 745.04C643.806 744.822 646.816 745.524 649.792 746.21C663.616 749.397 677.305 754.096 690.875 758.247C698.8 760.672 707.859 762.577 715.246 766.246C717.876 767.552 718.942 768.411 719.829 771.254C720.378 773.017 720.646 774.905 720.758 776.743C721.355 786.571 720.659 796.729 720.668 806.601C720.68 820.788 721.798 835.96 719.836 849.994C718.962 856.719 716.924 863.241 713.814 869.272C703.856 888.594 681.524 904.901 663.471 916.512C657.283 920.492 650.849 924.741 643.803 927C635.761 926.757 627.441 920.445 620.814 916.255C598.612 902.216 570.612 881.401 564.731 854.503C562.854 845.92 563.332 836.925 563.346 828.192L563.407 799.342C563.411 791.529 562.508 783.043 563.38 775.33C563.641 773.015 564.206 770.527 565.598 768.602C566.82 766.917 569.11 765.967 570.994 765.197C579.647 761.657 589.245 759.378 598.224 756.673C611.435 752.693 627.332 746.899 640.735 745.04Z" fill="#245EB7"/>
<path d="M630.022 792.134C634.752 792.038 651.055 790.792 654.327 793.154C658.253 795.987 656.312 810.829 656.687 815.644L656.74 816.285C662.565 816.628 677.333 814.825 681.416 818.098C682.491 820.095 682.533 837.927 682.064 840.883C680.566 850.333 662.334 841.834 657.628 846.249C654.552 849.135 657.125 861.667 656.42 866.059C656.091 868.107 655.414 869.033 653.722 870.209C649.755 870.631 632.213 871.604 629.313 869.802C628.428 869.252 627.967 868.153 627.752 867.193C626.555 861.858 628.169 852.54 627.284 846.307C625.092 843.077 608.173 847.669 603.72 843.75C602.411 842.596 602.068 840.741 602.053 839.087C602.008 834.534 601.827 824.25 602.399 820.201C602.521 819.335 602.898 818.64 603.534 818.041C606.907 814.872 622.392 816.426 627.569 816.404C627.73 810.933 627.442 805.444 627.53 799.971C627.579 796.816 627.644 794.419 630.022 792.134Z" fill="#B3D1FF"/>
</g>
<path d="M471.022 473.17C513.24 484.579 557.142 495.208 588.123 527.921C592.577 532.626 597.584 537.668 600.877 543.259C607.559 554.776 612.876 567.015 616.724 579.732C623.187 600.933 638.264 682.391 632.847 700.733C632.184 702.974 630.875 704.491 628.769 705.443C625.887 706.742 622.411 706.745 619.296 706.991C620.309 723.376 622.624 773.788 616.098 787.007C612.402 790.707 602.653 789.967 597.586 790.012C576.448 790.203 555.294 789.892 534.154 789.866L390.356 789.774C387.832 790.984 386.517 794.288 383.648 795.082C377.624 796.746 238.415 795.781 224.84 795.043C220.379 794.803 211.482 794.752 208.032 792.144C199.406 785.624 199.15 774.101 197.156 764.38C192.782 764.232 187.339 762.686 183.687 760.23C176.909 755.671 175.605 748.575 174.138 741.206C171.249 738.592 167.521 735.347 166.46 731.493C165.638 728.506 162.358 702.076 162.436 698.842C162.503 696.05 163.206 693.665 164.855 691.349C167.968 686.982 175.216 685.217 180.226 684.405C176.025 668.095 173.555 651.007 170.055 634.5C166.664 618.495 161.058 600.777 160.093 584.577C159.812 579.874 159.932 571.881 163.925 568.546C171.612 562.129 189.724 564.585 199.271 564.808C200.826 561.64 202.352 557.885 205.121 555.546C212.879 548.985 228.703 551.955 238.243 552.352C238.848 551.104 238.791 551.155 239.663 549.753C262.792 512.469 316.964 496.387 357.929 488.474C356.279 494.672 356.092 499.829 358.518 505.892C361.418 513.136 367.711 517.582 374.77 520.52C392.18 527.767 413.038 526.637 430.209 519.298C452.495 509.774 462.318 494.803 471.022 473.17Z" fill="#FEC73C"/>
<path d="M238.243 552.352C238.574 552.393 238.904 552.438 239.237 552.477C251.686 553.858 285.167 548.127 292.671 557.926C294.182 559.899 294.789 562.071 295.11 564.467C308.392 564.289 335.419 561.267 346.875 567.058C349.786 571.392 351.362 576.146 352.601 581.165C361.007 615.223 366.133 650.685 372.65 685.192L384.006 746.561C386.511 760.395 390.53 774.689 389.797 788.817L390.356 789.774C387.832 790.984 386.517 794.288 383.648 795.082C377.624 796.746 238.415 795.781 224.84 795.043C220.379 794.803 211.482 794.752 208.032 792.144C199.406 785.624 199.15 774.101 197.156 764.38C192.782 764.232 187.339 762.686 183.687 760.23C176.909 755.671 175.605 748.575 174.138 741.206C171.249 738.592 167.521 735.347 166.46 731.493C165.638 728.506 162.358 702.076 162.436 698.842C162.503 696.05 163.206 693.665 164.855 691.349C167.968 686.982 175.216 685.217 180.226 684.405C176.025 668.095 173.555 651.007 170.055 634.5C166.664 618.495 161.058 600.777 160.093 584.577C159.812 579.874 159.932 571.881 163.925 568.546C171.612 562.129 189.724 564.585 199.271 564.808C200.826 561.64 202.352 557.885 205.121 555.546C212.879 548.985 228.703 551.956 238.243 552.352Z" fill="#0056A3"/>
<path d="M180.225 684.405C190.779 684.463 216.189 682.449 223.426 690.796C225.199 692.842 225.365 695.422 224.823 697.937C224.052 701.527 222.239 704.684 223.352 708.242C225.721 709.861 227.932 710.998 230.554 712.192C233.114 713.359 234.534 714.015 236.11 716.443C236.305 720.803 234.112 723.985 231.199 727.157C229.386 729.132 227.23 730.781 225.112 732.422C228.76 735.411 232.536 738.257 233.123 743.237C233.482 746.304 232.112 749.193 229.954 751.329C220.871 760.325 208.355 760.482 197.155 764.38C192.781 764.232 187.338 762.686 183.686 760.231C176.908 755.671 175.604 748.575 174.137 741.206C171.248 738.592 167.519 735.347 166.459 731.493C165.637 728.506 162.357 702.076 162.435 698.842C162.502 696.05 163.204 693.665 164.854 691.349C167.967 686.983 175.215 685.218 180.225 684.405Z" fill="#F6A26B"/>
<path d="M238.244 552.352C238.574 552.393 238.904 552.438 239.237 552.477C251.687 553.858 285.168 548.127 292.672 557.926C294.182 559.899 294.789 562.071 295.111 564.467L293.282 569.556C293.572 573.884 296.111 574.71 298.008 578.074C299.391 580.523 299.158 581.24 298.447 583.714C288.204 591.716 229.098 588.225 213.214 588.274C211.236 587.152 209.326 585.994 207.554 584.564C201.065 579.32 200.204 572.565 199.271 564.808C200.826 561.64 202.352 557.885 205.121 555.546C212.88 548.985 228.703 551.956 238.244 552.352Z" fill="#172D43"/>
<path d="M531.943 715.128C561.109 713.489 590.13 708.902 619.296 706.991C620.309 723.376 622.624 773.788 616.098 787.007C612.403 790.707 602.653 789.967 597.586 790.012C576.448 790.203 555.295 789.892 534.154 789.866C536.661 777.134 532.28 731.354 531.943 715.128Z" fill="#F6A26B"/>
<path d="M518.048 598.639C520.163 600.181 521.024 600.985 521.639 603.58C523.983 613.445 528.087 705.932 526.035 711.163C525.585 712.312 524.744 713.275 524.098 714.33C523.726 714.161 523.344 714.013 522.983 713.824C519.959 712.235 519.242 712.029 518.494 708.636C516.224 698.357 513.642 618.519 514.814 606.499C515.122 603.32 516.318 601.287 518.048 598.639Z" fill="#F69E16"/>
<path d="M310.92 289.745C305.172 286.242 301.759 283.568 300.244 276.828C297.822 266.041 304.707 253.443 310.687 244.683C326.638 221.309 352.659 207.751 380.225 202.61C407.387 197.545 439.783 198.911 463.097 215.169C471.349 220.925 474.373 229.499 480.673 236.724C485.592 242.367 492.303 246.416 496.255 252.886C500.148 259.264 502.43 266.592 503.55 273.926C506.698 294.572 502.028 317.24 495.348 336.803C501.828 349.312 504.987 363.516 500.687 377.32C496.596 390.456 486.555 400.984 474.286 407.169C471.773 408.436 469.158 409.545 466.573 410.656C469.039 431.336 465.26 453.028 471.021 473.17C462.317 494.803 452.494 509.774 430.208 519.298C413.037 526.637 392.179 527.767 374.769 520.52C367.711 517.582 361.417 513.137 358.517 505.892C356.091 499.829 356.278 494.672 357.928 488.474C360.633 487.702 361.598 487.204 363.361 485.023C363.972 478.71 364.239 472.493 364.341 466.151C351.187 462.576 339.764 458.298 330.304 448.036C322.082 439.119 316.832 427.242 313.904 415.631C305.6 382.693 308.798 324.272 310.92 289.745Z" fill="#F6A26B"/>
<path d="M310.92 289.745C305.172 286.242 301.759 283.568 300.244 276.828C297.822 266.041 304.707 253.443 310.687 244.683C326.638 221.309 352.659 207.751 380.225 202.61C407.387 197.545 439.783 198.911 463.097 215.169C471.349 220.925 474.373 229.499 480.673 236.724C485.592 242.367 492.303 246.416 496.255 252.886C500.148 259.264 502.43 266.592 503.55 273.926C506.698 294.572 502.028 317.24 495.348 336.803C492.1 336.093 488.653 334.545 485.492 333.46C470.241 337.335 461.326 347.119 450.415 357.503C435.223 334.425 435.592 307.56 434.399 280.986C393.688 294.424 352.953 300.607 310.92 289.745Z" fill="#172D43"/>
<path d="M364.342 466.151C374.037 465.392 384.345 465.465 393.732 462.769C402.029 460.386 411.846 451.004 419.478 452.719C420.641 454.673 420.774 455.567 419.911 457.808C416.713 466.125 392.162 477.676 383.093 480.275C376.645 482.122 368.957 481.377 363.361 485.023C363.972 478.71 364.24 472.492 364.342 466.151Z" fill="#CB6D38"/>
<path d="M354.833 343.224C356.709 343.775 357.074 344.039 358.472 345.266C360.591 354.292 351.942 380.612 350.296 391.653C354.1 393.849 358.75 395.118 362.041 398.056C363.426 399.292 362.961 398.966 363.022 401.08L360.609 403.148C357.028 403.107 353.17 403.259 349.84 401.773C346.555 400.308 344.459 397.666 343.316 394.331C339.59 383.452 349.633 353.679 354.833 343.224Z" fill="#CB6D38"/>
<path d="M347.805 416.461C357.185 416.356 364.819 423.491 374.621 422.485C380.355 421.896 385.781 416.238 391.431 417.088C393.018 419.367 392.74 419.341 392.27 422.11C388.462 424.609 384.54 426.474 380.058 427.487C371.714 429.372 359.502 429.698 352.17 424.549C348.979 422.307 348.424 420.124 347.805 416.461Z" fill="#CB6D38"/>
<path d="M391.422 346.54C393.824 346.625 396.181 346.715 398.183 348.232C400.485 349.973 401.989 352.855 402.411 355.658C403.304 361.588 401.437 366.28 398.013 371.016C395.439 370.966 393.096 370.861 390.961 369.227C388.685 367.486 387.214 364.569 386.827 361.781C386.009 355.922 387.761 351.054 391.422 346.54Z" fill="#172D43"/>
<path d="M322.804 323.644C327.552 323.696 331.745 324.066 336.286 325.572C339.645 326.685 342.303 327.86 343.907 331.172C343.488 333.689 343.175 334.137 341.56 336.155L338.669 336.381C333.397 336.805 327.156 337.865 321.937 337.262C319.024 336.925 317.746 336.484 315.98 334.212C316.185 329.58 319.704 326.734 322.804 323.644Z" fill="#172D43"/>
<path d="M392.239 325.945C399.782 325.705 407.079 325.246 413.849 329.127C415.416 331.392 415.392 331.42 415.188 334.159C413.494 336.573 413.173 336.719 410.408 337.849C403.708 337.515 389.696 338.336 384.691 333.948L384.615 331.652C386.935 328.999 389.146 327.631 392.239 325.945Z" fill="#172D43"/>
<path d="M328.66 346.694C331.001 347.129 332.884 347.149 334.825 348.6C337.027 350.245 338.279 352.527 338.595 355.221C339.229 360.657 337.105 364.888 333.949 369.143C332.51 368.914 330.371 368.747 329.028 368.067C326.436 366.756 324.806 364.513 324.171 361.721C322.932 356.263 325.745 351.075 328.66 346.694Z" fill="#172D43"/>
<g opacity="0.5">
<path d="M70.7522 101.552C67.5462 96.8679 64.042 92.5135 61.4089 87.4512C54.7276 74.607 52.4003 56.0646 54.9946 41.8888C57.3529 28.6508 64.9718 16.926 76.1204 9.37849C91.705 -1.21827 113.593 -1.49257 131.473 2.00798C142.092 4.0884 151.647 7.66306 157.847 17.1118C164.96 27.9474 162.765 36.9681 161.739 48.902C161.305 53.9543 161.642 59.0188 161.47 64.0733C161.39 66.4236 160.876 68.9021 161.18 71.2425C162.348 80.251 169.28 89.5947 166.975 98.9284C166.292 101.697 164.382 104.349 161.841 105.696C160.445 106.436 158.848 106.897 157.378 107.469C155.805 118.937 152.314 131.216 142.665 138.673C137.067 142.999 131.285 142.855 124.605 142.367C125.941 145.384 127.621 148.551 128.597 151.687C138.86 155.366 146.251 162.629 150.84 172.453C158.294 188.412 160.04 207.703 159.992 225.163C166.836 223.143 174.015 222.693 180.889 220.822L181.188 224.865C183.607 234.883 185.292 245.126 187.279 255.241C188.266 260.263 189.029 265.746 190.834 270.536C192.661 272.008 194.062 272.835 196.334 273.45C188.003 278.348 170.522 283.088 160.784 285.134C160.3 289.207 160.834 296.374 158.185 299.51C151.035 301.781 120.361 300.908 111.469 300.422C102.599 300.962 93.7065 300.998 84.8331 300.529C69.3581 301.024 53.7767 300.576 38.2907 300.58C29.0216 300.582 18.6322 301.493 9.46512 300.255C8.61624 300.14 7.48255 300.175 7.02043 299.378C5.71829 297.131 5.51882 293.158 5.37808 290.565C4.59568 276.056 5.27058 261.156 5.26837 246.608C5.26615 231.367 4.53584 215.65 5.70278 200.455C6.22918 193.602 7.46925 186.304 9.35098 179.701C14.1994 162.694 26.7332 149.073 41.7704 140.145C46.6498 137.249 51.8894 135.069 56.8453 132.317C58.5642 128.139 61.9752 127.394 65.8617 125.716C68.1712 117.806 70.1793 109.803 70.7522 101.552Z" fill="#B3D1FF"/>
<path d="M70.7528 101.552C67.5468 96.8679 64.0427 92.5135 61.4096 87.4512C54.7282 74.607 52.401 56.0646 54.9953 41.8888C57.3535 28.6508 64.9724 16.926 76.121 9.37849C91.7057 -1.21827 113.594 -1.49257 131.474 2.00798C142.092 4.0884 151.647 7.66306 157.848 17.1118C164.96 27.9474 162.766 36.9681 161.74 48.902C161.305 53.9543 161.642 59.0188 161.471 64.0733C161.391 66.4236 160.877 68.9021 161.18 71.2425C162.348 80.251 169.281 89.5947 166.976 98.9284C166.292 101.697 164.383 104.349 161.842 105.696C160.445 106.436 158.849 106.897 157.379 107.469C155.805 118.937 152.315 131.216 142.665 138.673C137.068 142.999 131.285 142.855 124.606 142.367C125.941 145.384 127.621 148.551 128.598 151.687C138.861 155.366 146.252 162.63 150.841 172.453C158.294 188.412 160.041 207.703 159.992 225.163C151.897 229.097 141.518 230.144 132.92 232.949L131.167 233.195L130.608 232.314C129.553 232.428 128.885 232.271 127.875 231.965C123.41 227.939 119.084 216.192 116.33 210.414C112.912 204.645 110.722 198.706 106.645 193.239C90.7427 177.771 79.7459 165.913 66.8376 147.724C63.3556 142.817 59.5068 137.715 56.846 132.317C58.5648 128.139 61.9759 127.394 65.8623 125.716C68.1718 117.806 70.1799 109.803 70.7528 101.552Z" fill="#235CB2"/>
<path d="M128.598 151.687C138.861 155.366 146.251 162.629 150.84 172.453C158.294 188.412 160.041 207.703 159.992 225.163C151.897 229.097 141.518 230.144 132.92 232.949L131.166 233.195L130.608 232.314C131.284 228.504 130.894 224.672 130.679 220.834C132.35 210.016 131.141 197.25 130.386 186.342C130.828 184.38 131.386 182.433 131.89 180.485C133.409 170.696 130.68 161.198 128.598 151.687Z" fill="#B3D1FF"/>
<path d="M131.891 180.485C133.927 183.884 132.81 225.685 132.92 232.949L131.167 233.195L130.608 232.314C131.284 228.504 130.894 224.672 130.679 220.834C132.35 210.016 131.141 197.25 130.387 186.343C130.829 184.381 131.386 182.433 131.891 180.485Z" fill="#ECF2F7"/>
<path d="M120.609 191.001C123.561 190.061 128.523 188.915 130.385 186.343C131.14 197.25 132.349 210.016 130.677 220.834C128.445 218.044 122.487 196.371 120.609 191.001Z" fill="#4F9CDA"/>
<path d="M106.645 193.238L112.439 192.728C114.267 198.168 117.13 204.636 116.329 210.414C112.911 204.645 110.722 198.706 106.645 193.238Z" fill="#4F9CDA"/>
<path d="M100.707 42.9859C115.425 45.8704 139.111 49.2051 153.14 42.7659C154.367 52.8539 152.488 63.7967 153.617 72.291C154.15 76.3091 155.587 80.2797 156.778 84.1431C157.953 87.9522 160.8 94.7542 158.838 98.4582C156.407 99.5244 153.481 99.269 150.859 99.3243L148.863 111.133C144.313 110.349 140.7 109.259 136.314 111.129L135.475 112.156C135.836 113.86 136.653 114.632 138.124 115.557C140.856 117.278 143.99 117.778 147.116 118.349C144.709 124.099 141.481 131.238 135.297 133.728C130.362 135.715 124.365 133.99 119.738 131.872C116.041 130.18 113.421 128.152 109.156 128.727L108.472 129.391C108.877 134.584 116.303 136.118 117.453 143.864C120.094 149.055 123.68 165.752 124.148 171.678C124.345 174.187 124.504 178.308 122.423 180.179C119.029 183.228 111.825 182.805 107.58 182.963C97.0912 174.544 73.5828 145.751 67.6406 133.946L68.003 133.098L70.0199 132.587C76.4763 125.305 77.3762 112.879 78.7193 103.527C80.8316 102.987 82.6601 102.698 84.2637 101.15C84.4798 100.475 84.8322 100.074 84.441 99.3995C81.0587 93.5741 67.4389 94.5562 69.5922 80.2134C70.1906 76.2339 71.8341 72.0411 75.1952 69.6045C77.2609 68.1069 79.7001 67.4334 82.2279 67.9465C87.9452 69.1079 90.2957 77.6419 94.9723 77.33C98.4443 74.4953 98.9008 67.8935 99.3397 63.6696C100.052 56.8145 100.32 49.8665 100.707 42.9859Z" fill="#B3D1FF"/>
<path d="M107.58 182.962C97.0912 174.543 73.5828 145.751 67.6406 133.946L68.003 133.098L70.0199 132.587C83.724 141.708 97.95 151.6 113.826 156.512C115.029 152.305 116.121 148.029 117.453 143.864C120.094 149.055 123.68 165.752 124.148 171.678C124.345 174.187 124.504 178.308 122.423 180.179C119.029 183.228 111.825 182.805 107.58 182.962Z" fill="#4F9CDA"/>
<path d="M135.035 65.9502C136.601 66.0829 138.115 66.4335 139.21 67.6534C140.237 68.7982 140.671 70.298 140.523 71.811C140.286 74.2365 139.18 75.7019 137.403 77.268C135.59 77.0291 134.031 76.923 132.758 75.4332C131.525 73.992 131.104 72.2888 131.49 70.455C131.98 68.1279 133.12 67.1403 135.035 65.9502Z" fill="#235CB2"/>
<path d="M84.8325 300.529C80.1237 297.767 75.2199 295.984 70.6862 292.739C52.7023 279.87 37.4434 262.205 25.3252 243.896C23.0146 240.407 20.2828 236.784 18.6925 232.9C17.9212 231.016 17.5556 229.462 18.4 227.576C19.5913 227.511 19.8916 227.609 20.9123 228.336C25.1778 231.366 34.8313 247.305 38.7599 252.475C48.1897 264.883 60.5439 277.528 73.4778 286.338C79.0909 290.161 85.6448 293.595 92.4902 294.357C114.191 296.773 166.193 275.136 190.833 270.536C192.661 272.008 194.062 272.835 196.333 273.45C188.002 278.348 170.521 283.088 160.783 285.134C160.299 289.207 160.833 296.374 158.185 299.51C151.034 301.781 120.36 300.908 111.468 300.422C102.598 300.962 93.7059 300.998 84.8325 300.529Z" fill="#A3C4E5"/>
<path d="M111.469 300.422C115.127 297.841 153.732 286.537 160.784 285.134C160.3 289.207 160.834 296.374 158.185 299.51C151.035 301.781 120.361 300.908 111.469 300.422Z" fill="#B3D1FF"/>
<path d="M103.467 241.909C94.4411 231.615 86.3911 220.651 78.1749 209.717C75.2271 205.794 71.4481 201.734 69.0444 197.481C68.221 196.025 67.7157 194.216 67.7811 192.537C67.8309 191.261 67.9318 191.021 68.7529 190.13C70.8231 190.396 72.4599 192.324 73.6856 193.882C75.8144 196.591 77.5055 199.629 79.5579 202.403C88.9012 215.026 98.6834 228.344 109.378 239.883C116.695 237.79 123.958 235.645 131.165 233.195L132.918 232.949C141.517 230.144 151.895 229.097 159.99 225.163C166.835 223.143 174.014 222.693 180.888 220.822L181.187 224.865C159.793 231.078 138.451 237.468 117.164 244.036C110.333 246.164 103.555 248.938 96.7551 250.958C95.2191 251.414 92.9085 251.104 91.4889 250.374C90.3231 249.775 90.1369 249.58 89.5584 248.421C90.1901 246.834 91.1077 246.188 92.6769 245.514C96.1655 244.016 99.9755 243.415 103.467 241.909Z" fill="#A3C4E5"/>
<path d="M180.889 220.821C189.981 217.292 196.563 208.793 206.083 206.491C210.831 205.342 219.409 206.942 222.727 202.953C222.994 201.696 223.323 201.066 222.578 199.897C221.415 198.072 218.61 196.109 216.97 194.646C210.585 188.955 207.576 181.704 208.21 173.002C208.717 166.037 211.91 159.507 217.351 155.07C223.294 150.224 231.251 148.186 238.825 149.114C245.824 149.953 252.176 153.605 256.416 159.226C260.96 165.375 262.845 173.085 261.648 180.631C260.456 187.811 256.454 193.945 250.502 198.087C244.026 202.593 233.075 202.468 231.291 203.808C234.52 209.094 247.221 209.638 244.382 220.711C243.691 223.407 241.309 225.377 240.609 228.037C239.734 231.358 239.629 235.109 239.055 238.522C237.593 247.212 231.073 253.059 223.657 257.041C215.482 261.43 206.353 263.654 197.47 266.129C197.287 268.607 197.299 271.133 196.334 273.45C194.062 272.835 192.661 272.008 190.834 270.536C189.028 265.746 188.266 260.263 187.279 255.241C185.292 245.126 183.607 234.883 181.188 224.865L180.889 220.821Z" fill="#235CB2"/>
<path d="M217.805 213.363C222.217 213.289 230.478 213.219 234.27 215.683C235.709 216.619 235.846 217.328 236.285 218.935C234.828 224.881 223.773 222.121 219.319 225.448C218.776 226.816 218.901 226.901 219.324 228.334C221.654 230.853 227.669 229.146 230.846 229.793C231.77 229.981 231.691 230.328 232.121 231.082C231.193 236.971 221.997 234.929 219.015 240.669C218.604 241.46 218.879 241.747 219.091 242.543C221.965 244.885 225.75 244.058 229.193 243.816C226.629 245.716 223.935 247.421 221.259 249.16C213.316 253.131 204.751 256.443 195.935 257.797L189.908 226.302C198.953 218.239 205.338 214.219 217.805 213.363Z" fill="#B3D1FF"/>
<path d="M232.398 163.128C239.436 161.712 246.301 166.222 247.782 173.232C249.262 180.243 244.804 187.134 237.792 188.673C235.601 189.154 233.323 189.065 231.178 188.413C225.446 186.672 221.631 181.268 221.92 175.296C222.208 169.323 226.525 164.311 232.398 163.128Z" fill="#ECF2F7"/>
<path d="M231.792 167.932C234.833 166.815 238.243 167.445 240.683 169.575C243.122 171.705 244.2 174.995 243.494 178.151C242.788 181.308 240.411 183.828 237.297 184.721C232.716 186.035 227.915 183.495 226.433 178.975C224.952 174.455 227.32 169.574 231.792 167.932Z" fill="#235CB2"/>
</g>
</svg>
