<svg width="342" height="360" viewBox="0 0 342 360" fill="none" xmlns="http://www.w3.org/2000/svg">
<path d="M151.788 0.57442C165.406 -0.381269 179.194 -0.361035 192.627 2.32476C213.916 6.58132 230.641 15.3291 242.888 33.4204C249.07 36.0968 252.787 38.5556 256.722 44.1174C269.862 62.6937 265.936 92.92 262.162 113.737C262.767 114.299 263.355 114.879 263.922 115.478C270.25 122.166 271.483 131.218 271.175 140.078C270.733 152.716 265.812 168.402 255.884 176.887C252.222 180.018 246.653 183.079 244.042 187.097C240.766 192.137 238.406 197.846 235.759 203.218C231.174 212.516 224.912 218.995 217.355 226.022C218.853 230.952 221.038 237.696 225.133 241.102C233.716 248.244 258.829 251.062 269.98 254.357C284.51 258.6 297.967 265.85 309.469 275.628C328.724 292.228 340.801 319.324 341.967 344.502C342.167 348.84 341.526 352.967 338.371 356.205C336.51 358.113 334.385 359.075 331.761 359.386C319.964 360.784 301.991 359.357 289.453 359.352L190.827 359.329L62.4866 359.298C48.7091 359.3 16.2096 361.378 4.50244 358.244C2.79546 356.9 1.86143 355.827 1.15533 353.802C-3.03671 341.767 5.13141 315.363 10.4512 304.065C22.7788 277.877 46.0166 261.071 73.6745 253.378C83.9421 250.521 95.07 249.186 105.003 245.386C115.226 241.476 118.457 234.788 122.759 225.457C111.219 213.742 103.553 202.354 97.1643 187.214C92.6278 184.444 88.5711 181.496 85.0183 177.53C75.1655 166.534 67.6418 148.971 68.9083 134.097C69.611 125.841 72.6239 121.017 79.0045 115.922C78.0139 111.297 77.0096 106.659 76.2315 101.993C72.408 79.0889 74.324 56.0697 88.3329 36.7255C103.901 15.2274 125.993 4.78132 151.788 0.57442Z" fill="#2B6BCC"/>
<path d="M209.657 66.425C211.517 68.4653 212.92 71.4458 214.579 73.7174C219.788 80.8507 225.889 86.3144 232.895 91.6525C234.499 101.211 234.726 130.024 241.248 135.891C246.979 136.369 248.834 127.093 253.542 124.426C255.317 124.819 255.552 124.897 256.592 126.513C260.293 132.249 259.763 140.352 258.31 146.683C254.908 161.509 246.518 169.757 234.11 177.574C232.007 183.085 229.953 188.668 227.264 193.931C219.114 209.879 205.018 222.866 187.712 228.287C171.396 233.399 156.527 231.642 141.507 223.809C123.22 212.664 115.537 196.997 106.519 178.526C98.6935 173.976 92.8424 168.425 88.2596 160.652C83.9939 153.418 78.9124 142.054 81.4763 133.684C82.2732 131.082 83.4866 129.062 85.9957 127.846C93.0429 127.079 94.6385 133.322 100.092 135.935C101.662 136.689 102.197 136.4 103.753 135.932C110.022 129.647 110.622 111.157 111.801 102.454C146.741 100.561 183.259 90.0037 209.657 66.425Z" fill="#F9F9F9"/>
<path d="M132.908 233.331C136.401 235.15 139.964 236.83 143.589 238.369C165.504 247.467 185.04 242.748 206.151 234.04C208.807 238.097 210.773 241.581 211.248 246.474C212.18 256.065 207.208 263.899 201.304 270.949C195.446 276.78 188.618 281.431 180.553 283.688C169.936 286.591 158.59 285.159 149.042 279.712C139.692 274.495 131.873 266.205 129.26 255.686C127.182 247.321 128.67 240.6 132.908 233.331Z" fill="#F9F9F9"/>
</svg>
