<svg width="721" height="952" viewBox="0 0 721 952" fill="none" xmlns="http://www.w3.org/2000/svg">
<g opacity="0.11">
<path d="M0.42717 762.76C0.792588 752.859 -2.66729 732.134 5.45295 725.192C7.64674 723.316 10.6344 721.322 13.5487 720.939C26.3229 719.258 40.3786 720.345 53.3046 720.352L132.949 720.602L195.211 720.562C206.034 720.526 217.717 719.637 228.424 720.887C232.799 721.399 236.527 723.863 239.285 727.262C241.567 730.071 241.864 734.437 242.17 737.948C243.742 755.993 242.598 775.369 242.595 793.584C242.589 814.198 243.564 835.384 242.501 855.936L242.659 909.209C242.68 918.474 243.668 928.841 242.031 937.916C241.451 941.134 239.902 943.825 237.652 946.181C232.198 951.89 225.29 951.814 217.965 951.784C210.155 951.752 202.113 951.794 194.353 950.913C188.109 951.414 181.628 951.167 175.381 950.912C172.218 951.418 169.081 951.552 165.884 951.63C132.527 952.453 98.9766 951.634 65.5963 951.707L32.2648 951.793C26.4953 951.803 20.0015 952.333 14.3079 951.372C11.1633 950.841 7.796 948.377 5.6035 946.162C2.80626 943.338 1.10785 939.832 0.580309 935.893C-0.306214 929.273 0.176292 922.166 0.186585 915.474L0.208457 880.931L0.42717 762.76Z" fill="#B3D1FF"/>
<path d="M0.42717 762.76C0.792588 752.859 -2.66729 732.134 5.45295 725.192C7.64674 723.316 10.6344 721.322 13.5487 720.939C26.3229 719.258 40.3786 720.345 53.3046 720.352L132.949 720.602L195.211 720.562C206.034 720.526 217.717 719.637 228.424 720.887C232.799 721.399 236.527 723.863 239.285 727.262C241.567 730.071 241.864 734.437 242.17 737.948C243.742 755.993 242.598 775.369 242.595 793.584C242.589 814.198 243.564 835.384 242.501 855.936C241.173 845.161 241.964 833.496 241.98 822.613L242.043 762.729L0.42717 762.76Z" fill="#4F9CDA"/>
<path d="M175.381 950.912C160.841 945.979 149.248 940.038 142.087 925.645C136.451 914.318 136.856 899.071 140.953 887.258C145.222 874.951 154.68 865.876 166.292 860.366C176.702 855.424 188.939 854.339 199.83 858.362C212.297 862.969 222.099 873.29 227.421 885.353C232.483 896.828 232.019 910.513 227.445 922.099C223.014 933.328 212.565 943.99 201.466 948.715C199.155 949.7 196.8 950.381 194.353 950.913C188.109 951.414 181.628 951.168 175.381 950.912Z" fill="#2B6BCC"/>
<path d="M203.504 889.106C205.007 888.984 206.951 888.746 208.343 889.448C209.905 890.236 210.175 891.168 210.732 892.67C210.561 894.527 210.114 895.858 209.173 897.479C206.12 902.741 184.119 925.269 178.878 926.553C173.766 925.446 170.54 921.08 167.042 917.47C164.314 914.851 161.236 912.133 160.152 908.352C159.707 906.799 159.919 906.046 160.605 904.643C162.119 903.637 163.652 903.098 165.493 903.218C169.682 903.493 175.399 910.353 178.432 913.283C186.889 905.424 194.385 896.203 203.504 889.106Z" fill="#F9F9F9"/>
<path d="M40.9459 854.976C48.7445 854.868 74.7225 852.649 79.5888 857.881C82.1673 860.653 81.5998 885.715 80.8291 890.852C80.4573 893.333 79.7676 894.391 77.7861 895.88C68.5632 896.683 52.6058 897.023 43.4704 896.144C41.7617 895.98 39.9114 895.871 38.846 894.371C36.1131 890.527 36.8697 865.35 37.6275 860.16C38.0058 857.572 38.9271 856.54 40.9459 854.976Z" fill="#4F9CDA"/>
<path d="M165.009 793.793C172.867 793.544 199.061 791.869 204.42 796.145C206.033 800.311 206.013 823.243 205.458 828.294C205.144 831.149 204.433 832.472 202.244 834.313C201.237 834.384 200.236 834.451 199.226 834.478C194.291 834.607 165.854 835.679 163.794 833.302C159.515 828.365 160.953 806.544 161.671 800.057C162.011 796.988 162.617 795.751 165.009 793.793Z" fill="#4F9CDA"/>
<path d="M41.4848 793.865C49.0775 793.653 75.2923 791.852 80.219 796.496C81.4915 799.993 81.6678 826.008 80.9203 829.783C80.4584 832.114 79.5924 833.077 77.6624 834.357C67.5748 834.945 53.7546 835.651 43.8626 834.47C41.8541 834.232 39.9459 833.896 38.7789 832.096C35.9469 827.725 36.5838 804.111 37.6981 798.499C38.2153 795.891 39.4325 795.237 41.4848 793.865Z" fill="#4F9CDA"/>
<path d="M102.61 793.865C111.455 793.384 127.946 792.57 136.123 794.103C138.005 794.457 140.149 795.064 141.078 796.905C142.344 799.415 142.163 826.105 141.379 829.87C140.858 832.377 139.806 833.107 137.788 834.373C127.581 835.071 115.531 835.529 105.387 834.456C103.426 834.248 101.2 833.954 100.032 832.201C97.2846 828.08 97.8392 803.724 99.0268 798.425C99.5852 795.938 100.618 795.17 102.61 793.865Z" fill="#4F9CDA"/>
<path d="M101.976 854.991C107.434 854.801 137.231 853.479 140.493 856.871C142.393 858.847 141.988 863.811 142.021 866.391C135.678 873.095 132.19 878.476 129.506 887.452L127.277 896.13C120.045 896.12 112.619 896.749 105.414 896.206C103.54 896.066 101.393 895.932 100.209 894.284C97.3425 890.301 98.0785 867.429 98.6511 861.716C98.974 858.498 99.4655 857.092 101.976 854.991Z" fill="#4F9CDA"/>
</g>
<g opacity="0.37">
<path d="M530.463 9.04938C534.195 8.78343 537.852 9.63939 541.468 10.476C558.268 14.3629 574.902 20.0952 591.392 25.1589C601.023 28.1166 612.031 30.4401 621.008 34.9149C624.204 36.5084 625.499 37.556 626.576 41.0241C627.244 43.1743 627.57 45.4773 627.705 47.7201C628.431 59.708 627.586 72.0976 627.597 84.1394C627.612 101.445 628.97 119.951 626.585 137.07C625.523 145.272 623.047 153.228 619.267 160.585C607.166 184.153 580.029 204.044 558.091 218.207C550.572 223.062 542.753 228.245 534.191 231C524.419 230.704 514.308 223.004 506.255 217.893C479.275 200.77 445.25 175.379 438.103 142.57C435.822 132.1 436.403 121.128 436.42 110.477L436.495 75.2857C436.499 65.7548 435.402 55.4045 436.461 45.9963C436.779 43.1721 437.465 40.1369 439.158 37.7897C440.642 35.7343 443.425 34.5757 445.715 33.6358C456.229 29.3182 467.892 26.5382 478.804 23.2381C494.858 18.3833 514.176 11.3169 530.463 9.04938Z" fill="#245EB7"/>
<path d="M517.445 66.4934C523.192 66.376 543.004 64.8568 546.98 67.7369C551.751 71.1931 549.392 89.2968 549.848 95.1702L549.912 95.9519C556.991 96.3707 574.937 94.171 579.899 98.1634C581.204 100.599 581.256 122.35 580.686 125.956C578.866 137.483 556.71 127.117 550.992 132.501C547.254 136.022 550.38 151.308 549.524 156.666C549.124 159.164 548.301 160.293 546.244 161.727C541.424 162.242 520.107 163.429 516.583 161.231C515.507 160.56 514.948 159.22 514.686 158.048C513.232 151.541 515.193 140.175 514.118 132.573C511.454 128.633 490.894 134.234 485.483 129.453C483.892 128.046 483.475 125.783 483.457 123.765C483.403 118.211 483.182 105.668 483.877 100.729C484.026 99.6729 484.483 98.8245 485.257 98.0945C489.356 94.2291 508.173 96.1241 514.464 96.0972C514.659 89.4238 514.309 82.7289 514.416 76.0523C514.476 72.2042 514.555 69.2809 517.445 66.4934Z" fill="#B3D1FF"/>
</g>
<g opacity="0.28">
<path d="M483.258 473.803C483.479 467.829 481.386 455.322 486.299 451.133C487.626 450.001 489.433 448.798 491.196 448.567C498.924 447.552 507.427 448.208 515.246 448.212L563.426 448.363L601.091 448.339C607.638 448.317 614.705 447.781 621.183 448.535C623.829 448.844 626.084 450.331 627.753 452.382C629.133 454.078 629.313 456.712 629.498 458.831C630.449 469.72 629.757 481.412 629.755 492.404C629.752 504.844 630.341 517.628 629.698 530.03L629.794 562.178C629.806 567.769 630.404 574.025 629.414 579.501C629.063 581.443 628.126 583.067 626.765 584.488C623.466 587.933 619.287 587.888 614.855 587.87C610.131 587.85 605.266 587.876 600.572 587.344C596.794 587.646 592.874 587.498 589.095 587.343C587.181 587.649 585.284 587.73 583.35 587.777C563.171 588.274 542.875 587.779 522.682 587.823L502.518 587.875C499.028 587.881 495.1 588.201 491.655 587.621C489.753 587.301 487.716 585.814 486.39 584.477C484.698 582.773 483.67 580.657 483.351 578.28C482.815 574.286 483.107 569.997 483.113 565.958L483.126 545.113L483.258 473.803Z" fill="#B3D1FF"/>
<path d="M483.258 473.803C483.479 467.829 481.386 455.322 486.299 451.133C487.626 450.001 489.433 448.798 491.196 448.567C498.924 447.552 507.427 448.208 515.246 448.212L563.426 448.363L601.091 448.339C607.638 448.317 614.705 447.781 621.183 448.535C623.829 448.844 626.084 450.331 627.753 452.382C629.133 454.078 629.313 456.712 629.498 458.831C630.449 469.72 629.757 481.412 629.755 492.404C629.752 504.844 630.341 517.628 629.698 530.03C628.895 523.528 629.373 516.489 629.383 509.922L629.421 473.784L483.258 473.803Z" fill="#4F9CDA"/>
<path d="M589.095 587.344C580.3 584.367 573.287 580.782 568.954 572.096C565.545 565.261 565.79 556.06 568.268 548.932C570.851 541.505 576.572 536.029 583.597 532.704C589.894 529.722 597.297 529.067 603.886 531.495C611.427 534.274 617.357 540.502 620.576 547.782C623.638 554.707 623.358 562.965 620.591 569.956C617.91 576.732 611.589 583.167 604.875 586.018C603.477 586.612 602.052 587.023 600.572 587.344C596.795 587.646 592.874 587.498 589.095 587.344Z" fill="#2B6BCC"/>
<path d="M606.107 550.047C607.016 549.973 608.192 549.83 609.034 550.253C609.979 550.729 610.143 551.291 610.48 552.198C610.376 553.318 610.105 554.121 609.536 555.1C607.689 558.275 594.38 571.87 591.21 572.644C588.118 571.976 586.166 569.341 584.05 567.163C582.4 565.582 580.538 563.942 579.882 561.661C579.612 560.724 579.741 560.269 580.156 559.423C581.072 558.816 581.999 558.49 583.113 558.563C585.647 558.729 589.105 562.868 590.94 564.637C596.056 559.894 600.591 554.33 606.107 550.047Z" fill="#F9F9F9"/>
<path d="M507.768 529.451C512.486 529.386 528.201 528.047 531.145 531.204C532.705 532.877 532.361 548 531.895 551.1C531.67 552.598 531.253 553.236 530.054 554.134C524.475 554.619 514.822 554.824 509.295 554.294C508.262 554.195 507.142 554.129 506.498 553.223C504.845 550.904 505.302 535.711 505.761 532.579C505.99 531.017 506.547 530.394 507.768 529.451Z" fill="#4F9CDA"/>
<path d="M582.819 492.53C587.572 492.38 603.418 491.369 606.66 493.95C607.636 496.463 607.624 510.302 607.288 513.35C607.098 515.073 606.668 515.871 605.344 516.982C604.734 517.025 604.129 517.065 603.518 517.082C600.533 517.16 583.33 517.806 582.084 516.372C579.495 513.393 580.365 500.225 580.8 496.31C581.005 494.458 581.372 493.712 582.819 492.53Z" fill="#4F9CDA"/>
<path d="M508.096 492.573C512.689 492.446 528.548 491.359 531.528 494.161C532.298 496.272 532.405 511.97 531.952 514.248C531.673 515.655 531.149 516.236 529.981 517.008C523.879 517.363 515.519 517.789 509.535 517.077C508.32 516.933 507.165 516.73 506.459 515.644C504.746 513.007 505.131 498.756 505.806 495.37C506.118 493.796 506.855 493.402 508.096 492.573Z" fill="#4F9CDA"/>
<path d="M545.074 492.573C550.424 492.283 560.401 491.792 565.347 492.717C566.486 492.931 567.783 493.297 568.344 494.408C569.11 495.923 569.001 512.029 568.527 514.301C568.211 515.813 567.575 516.254 566.354 517.018C560.179 517.439 552.89 517.716 546.753 517.068C545.567 516.943 544.221 516.765 543.514 515.708C541.852 513.221 542.188 498.523 542.906 495.325C543.244 493.824 543.869 493.361 545.074 492.573Z" fill="#4F9CDA"/>
<path d="M544.689 529.46C547.991 529.345 566.016 528.547 567.99 530.595C569.139 531.787 568.894 534.782 568.914 536.339C565.077 540.385 562.967 543.632 561.343 549.048L559.995 554.285C555.62 554.279 551.128 554.659 546.769 554.331C545.636 554.246 544.337 554.166 543.621 553.171C541.886 550.768 542.332 536.966 542.678 533.518C542.873 531.576 543.171 530.728 544.689 529.46Z" fill="#4F9CDA"/>
</g>
<g opacity="0.37">
<path d="M640.735 745.04C643.806 744.822 646.816 745.524 649.792 746.21C663.616 749.397 677.305 754.096 690.875 758.247C698.8 760.672 707.859 762.577 715.246 766.246C717.876 767.552 718.942 768.411 719.829 771.254C720.378 773.017 720.646 774.905 720.758 776.743C721.355 786.571 720.659 796.729 720.668 806.601C720.68 820.788 721.798 835.96 719.836 849.994C718.962 856.719 716.924 863.241 713.814 869.272C703.856 888.594 681.524 904.901 663.471 916.512C657.283 920.492 650.849 924.741 643.803 927C635.761 926.757 627.441 920.445 620.814 916.255C598.612 902.216 570.612 881.401 564.731 854.503C562.854 845.92 563.332 836.925 563.346 828.192L563.407 799.342C563.411 791.529 562.508 783.043 563.38 775.33C563.641 773.015 564.206 770.527 565.598 768.602C566.82 766.917 569.11 765.967 570.994 765.197C579.647 761.657 589.245 759.378 598.224 756.673C611.435 752.693 627.332 746.899 640.735 745.04Z" fill="#245EB7"/>
<path d="M630.022 792.134C634.752 792.038 651.055 790.793 654.327 793.154C658.253 795.987 656.312 810.829 656.687 815.644L656.74 816.285C662.565 816.628 677.333 814.825 681.416 818.098C682.491 820.095 682.533 837.927 682.064 840.883C680.566 850.333 662.334 841.835 657.628 846.249C654.552 849.136 657.125 861.667 656.42 866.06C656.091 868.107 655.414 869.033 653.722 870.209C649.755 870.631 632.213 871.604 629.313 869.802C628.428 869.252 627.967 868.153 627.752 867.193C626.555 861.858 628.169 852.54 627.284 846.307C625.092 843.078 608.173 847.669 603.72 843.75C602.411 842.597 602.068 840.741 602.053 839.087C602.008 834.534 601.827 824.25 602.399 820.202C602.521 819.336 602.898 818.64 603.534 818.042C606.907 814.873 622.392 816.426 627.569 816.404C627.73 810.933 627.442 805.445 627.53 799.971C627.579 796.816 627.644 794.42 630.022 792.134Z" fill="#B3D1FF"/>
</g>
<path d="M322.978 473.17C280.76 484.58 236.858 495.208 205.877 527.921C201.423 532.627 196.416 537.669 193.123 543.259C186.441 554.776 181.124 567.015 177.276 579.732C170.813 600.933 155.736 682.391 161.153 700.734C161.816 702.975 163.125 704.491 165.231 705.443C168.113 706.743 171.589 706.745 174.704 706.991C173.691 723.376 171.376 773.789 177.902 787.008C181.598 790.707 191.347 789.967 196.414 790.012C217.552 790.203 238.706 789.892 259.846 789.866L403.644 789.774C406.168 790.984 407.483 794.289 410.352 795.082C416.376 796.746 555.585 795.781 569.16 795.043C573.621 794.803 582.518 794.752 585.968 792.144C594.594 785.624 594.85 774.102 596.844 764.38C601.218 764.232 606.661 762.686 610.313 760.231C617.091 755.671 618.395 748.575 619.862 741.206C622.751 738.592 626.479 735.347 627.54 731.493C628.362 728.506 631.642 702.076 631.564 698.842C631.497 696.05 630.794 693.665 629.145 691.349C626.032 686.983 618.784 685.218 613.774 684.405C617.975 668.095 620.445 651.007 623.945 634.5C627.336 618.495 632.942 600.777 633.907 584.577C634.188 579.874 634.068 571.881 630.075 568.546C622.388 562.13 604.276 564.585 594.729 564.808C593.174 561.641 591.648 557.886 588.879 555.546C581.121 548.986 565.297 551.956 555.757 552.352C555.152 551.104 555.209 551.156 554.337 549.753C531.208 512.47 477.036 496.388 436.071 488.474C437.721 494.672 437.908 499.83 435.482 505.892C432.582 513.137 426.289 517.582 419.23 520.52C401.82 527.767 380.962 526.637 363.791 519.298C341.505 509.774 331.682 494.803 322.978 473.17Z" fill="#FEC73C"/>
<path d="M555.757 552.352C555.426 552.393 555.096 552.438 554.763 552.477C542.314 553.858 508.833 548.127 501.329 557.926C499.818 559.899 499.211 562.071 498.89 564.467C485.608 564.289 458.581 561.267 447.125 567.058C444.214 571.392 442.638 576.146 441.399 581.165C432.993 615.223 427.867 650.685 421.35 685.192L409.994 746.561C407.489 760.395 403.47 774.689 404.203 788.817L403.644 789.774C406.168 790.984 407.483 794.288 410.352 795.082C416.376 796.746 555.585 795.781 569.16 795.043C573.621 794.803 582.518 794.752 585.968 792.144C594.594 785.624 594.85 774.102 596.844 764.38C601.218 764.232 606.661 762.686 610.313 760.23C617.091 755.671 618.395 748.575 619.862 741.206C622.751 738.592 626.479 735.347 627.54 731.493C628.362 728.506 631.642 702.076 631.564 698.842C631.497 696.05 630.794 693.665 629.145 691.349C626.032 686.982 618.784 685.217 613.774 684.405C617.975 668.095 620.445 651.007 623.945 634.5C627.336 618.495 632.942 600.777 633.907 584.577C634.188 579.874 634.068 571.881 630.075 568.546C622.388 562.129 604.276 564.585 594.729 564.808C593.174 561.64 591.648 557.885 588.879 555.546C581.121 548.985 565.297 551.956 555.757 552.352Z" fill="#0056A3"/>
<path d="M613.775 684.405C603.221 684.463 577.811 682.449 570.574 690.796C568.801 692.842 568.635 695.422 569.177 697.937C569.948 701.527 571.761 704.684 570.648 708.242C568.279 709.861 566.068 710.998 563.446 712.192C560.886 713.359 559.466 714.015 557.89 716.443C557.695 720.803 559.888 723.985 562.801 727.157C564.614 729.132 566.77 730.781 568.888 732.422C565.24 735.411 561.464 738.257 560.877 743.237C560.518 746.304 561.888 749.193 564.046 751.329C573.129 760.325 585.645 760.482 596.845 764.38C601.219 764.232 606.662 762.686 610.314 760.231C617.092 755.671 618.396 748.575 619.863 741.206C622.752 738.592 626.481 735.347 627.541 731.493C628.363 728.506 631.643 702.076 631.565 698.842C631.498 696.05 630.796 693.665 629.146 691.349C626.033 686.983 618.785 685.218 613.775 684.405Z" fill="#F6A26B"/>
<path d="M555.756 552.352C555.426 552.393 555.096 552.438 554.763 552.477C542.313 553.858 508.832 548.127 501.328 557.926C499.818 559.899 499.211 562.071 498.889 564.467L500.718 569.556C500.428 573.884 497.889 574.71 495.992 578.074C494.609 580.523 494.842 581.24 495.553 583.714C505.796 591.716 564.902 588.225 580.786 588.274C582.764 587.152 584.674 585.994 586.446 584.564C592.935 579.32 593.796 572.565 594.729 564.808C593.174 561.64 591.648 557.885 588.879 555.546C581.12 548.985 565.297 551.956 555.756 552.352Z" fill="#172D43"/>
<path d="M262.057 715.128C232.891 713.489 203.87 708.902 174.704 706.991C173.691 723.376 171.376 773.788 177.902 787.007C181.597 790.707 191.347 789.967 196.414 790.012C217.552 790.203 238.705 789.892 259.846 789.866C257.339 777.134 261.72 731.354 262.057 715.128Z" fill="#F6A26B"/>
<path d="M275.952 598.639C273.837 600.181 272.976 600.985 272.361 603.58C270.017 613.445 265.913 705.932 267.965 711.163C268.415 712.312 269.256 713.275 269.902 714.33C270.274 714.161 270.656 714.013 271.017 713.824C274.041 712.235 274.758 712.029 275.506 708.637C277.776 698.358 280.358 618.519 279.186 606.499C278.878 603.321 277.682 601.288 275.952 598.639Z" fill="#F69E16"/>
<path d="M483.08 289.745C488.828 286.242 492.241 283.568 493.756 276.828C496.178 266.041 489.293 253.443 483.313 244.683C467.362 221.309 441.341 207.751 413.775 202.61C386.613 197.545 354.217 198.911 330.903 215.169C322.651 220.925 319.627 229.499 313.327 236.724C308.408 242.367 301.697 246.416 297.745 252.886C293.852 259.264 291.57 266.592 290.45 273.926C287.302 294.572 291.972 317.24 298.652 336.803C292.172 349.312 289.013 363.516 293.313 377.32C297.404 390.456 307.445 400.984 319.714 407.169C322.227 408.436 324.842 409.545 327.427 410.656C324.962 431.336 328.74 453.028 322.979 473.17C331.683 494.803 341.506 509.774 363.792 519.298C380.963 526.637 401.821 527.767 419.231 520.52C426.289 517.582 432.583 513.137 435.483 505.892C437.909 499.829 437.722 494.672 436.072 488.474C433.367 487.702 432.402 487.204 430.639 485.023C430.028 478.71 429.761 472.493 429.659 466.151C442.813 462.576 454.236 458.298 463.696 448.036C471.918 439.119 477.168 427.242 480.096 415.631C488.4 382.693 485.202 324.272 483.08 289.745Z" fill="#F6A26B"/>
<path d="M483.08 289.745C488.828 286.242 492.241 283.568 493.756 276.828C496.178 266.041 489.293 253.443 483.313 244.683C467.362 221.309 441.341 207.751 413.775 202.61C386.613 197.545 354.217 198.911 330.903 215.169C322.651 220.925 319.627 229.499 313.327 236.724C308.408 242.367 301.697 246.416 297.745 252.886C293.852 259.264 291.57 266.592 290.45 273.926C287.302 294.572 291.972 317.24 298.652 336.803C301.9 336.093 305.347 334.545 308.508 333.46C323.759 337.335 332.674 347.119 343.585 357.503C358.777 334.425 358.408 307.56 359.601 280.986C400.312 294.424 441.047 300.607 483.08 289.745Z" fill="#172D43"/>
<path d="M429.658 466.151C419.963 465.392 409.655 465.465 400.268 462.769C391.971 460.386 382.154 451.004 374.522 452.719C373.359 454.673 373.226 455.567 374.089 457.808C377.287 466.125 401.838 477.676 410.907 480.275C417.355 482.122 425.043 481.377 430.639 485.023C430.028 478.71 429.76 472.492 429.658 466.151Z" fill="#CB6D38"/>
<path d="M439.167 343.224C437.291 343.775 436.926 344.039 435.528 345.265C433.409 354.292 442.058 380.612 443.704 391.653C439.9 393.849 435.25 395.118 431.959 398.056C430.574 399.291 431.039 398.966 430.978 401.08L433.391 403.147C436.972 403.107 440.83 403.259 444.16 401.773C447.445 400.308 449.541 397.666 450.684 394.331C454.41 383.452 444.367 353.678 439.167 343.224Z" fill="#CB6D38"/>
<path d="M402.578 346.54C400.176 346.625 397.819 346.715 395.817 348.232C393.515 349.973 392.011 352.855 391.589 355.658C390.696 361.588 392.563 366.28 395.987 371.016C398.561 370.966 400.904 370.861 403.039 369.227C405.315 367.486 406.786 364.569 407.173 361.781C407.991 355.922 406.239 351.054 402.578 346.54Z" fill="#172D43"/>
<path d="M475.928 321.765C471.588 319.84 467.619 318.436 462.863 317.919C459.345 317.537 456.439 317.502 453.604 319.847C452.94 322.312 453.039 322.85 453.67 325.356L456.206 326.762C460.825 329.338 466.062 332.894 471.06 334.513C473.85 335.417 475.196 335.546 477.745 334.213C479.483 329.914 477.464 325.864 475.928 321.765Z" fill="#172D43"/>
<path d="M400.561 317.846C393.101 318.985 385.842 319.864 379.893 324.914C378.765 327.426 378.794 327.449 379.494 330.105C381.599 332.171 381.942 332.255 384.867 332.863C391.393 331.313 405.32 329.566 409.441 324.34L409.097 322.068C406.333 319.882 403.91 318.94 400.561 317.846Z" fill="#172D43"/>
<path d="M465.34 346.694C462.999 347.129 461.116 347.149 459.175 348.6C456.973 350.245 455.721 352.527 455.405 355.221C454.771 360.657 456.895 364.888 460.051 369.143C461.49 368.914 463.629 368.747 464.972 368.067C467.564 366.756 469.194 364.513 469.829 361.721C471.068 356.263 468.255 351.075 465.34 346.694Z" fill="#172D43"/>
<circle cx="433.5" cy="428.5" r="7.5" fill="#CB6D38"/>
<g opacity="0.5">
<path d="M70.7522 101.552C67.5462 96.8679 64.042 92.5135 61.4089 87.4512C54.7276 74.607 52.4003 56.0646 54.9946 41.8888C57.3529 28.6508 64.9718 16.926 76.1204 9.37849C91.705 -1.21827 113.593 -1.49257 131.473 2.00798C142.092 4.0884 151.647 7.66306 157.847 17.1118C164.96 27.9474 162.765 36.9681 161.739 48.902C161.305 53.9543 161.642 59.0188 161.47 64.0733C161.39 66.4236 160.876 68.9021 161.18 71.2425C162.348 80.251 169.281 89.5947 166.975 98.9284C166.292 101.697 164.382 104.349 161.841 105.696C160.445 106.436 158.848 106.897 157.378 107.469C155.805 118.937 152.314 131.216 142.665 138.673C137.067 142.999 131.285 142.855 124.605 142.367C125.941 145.384 127.621 148.551 128.597 151.687C138.86 155.366 146.251 162.629 150.84 172.453C158.294 188.412 160.04 207.703 159.992 225.163C166.836 223.143 174.015 222.693 180.889 220.822L181.188 224.865C183.607 234.883 185.292 245.126 187.279 255.241C188.266 260.263 189.029 265.746 190.834 270.536C192.661 272.008 194.062 272.835 196.334 273.45C188.003 278.348 170.522 283.088 160.784 285.134C160.3 289.207 160.834 296.374 158.185 299.51C151.035 301.781 120.361 300.908 111.469 300.422C102.599 300.962 93.7065 300.998 84.8331 300.529C69.3581 301.024 53.7767 300.576 38.2907 300.58C29.0216 300.582 18.6322 301.493 9.46513 300.255C8.61624 300.14 7.48255 300.175 7.02043 299.378C5.71829 297.131 5.51882 293.158 5.37808 290.565C4.59568 276.056 5.27058 261.156 5.26837 246.608C5.26615 231.367 4.53584 215.65 5.70278 200.455C6.22918 193.602 7.46925 186.304 9.35098 179.701C14.1994 162.694 26.7332 149.073 41.7704 140.145C46.6498 137.249 51.8894 135.069 56.8453 132.317C58.5642 128.139 61.9752 127.394 65.8617 125.716C68.1712 117.806 70.1793 109.803 70.7522 101.552Z" fill="#B3D1FF"/>
<path d="M70.7528 101.552C67.5468 96.8679 64.0427 92.5135 61.4096 87.4512C54.7282 74.607 52.401 56.0646 54.9953 41.8888C57.3535 28.6508 64.9724 16.926 76.121 9.37849C91.7057 -1.21827 113.594 -1.49257 131.474 2.00798C142.092 4.0884 151.647 7.66306 157.848 17.1118C164.96 27.9474 162.766 36.9681 161.74 48.902C161.305 53.9543 161.642 59.0188 161.471 64.0733C161.391 66.4236 160.877 68.9021 161.18 71.2425C162.348 80.251 169.281 89.5947 166.976 98.9284C166.292 101.697 164.383 104.349 161.842 105.696C160.445 106.436 158.849 106.897 157.379 107.469C155.805 118.937 152.315 131.216 142.665 138.673C137.068 142.999 131.285 142.855 124.606 142.367C125.941 145.384 127.621 148.551 128.598 151.687C138.861 155.366 146.252 162.63 150.841 172.453C158.294 188.412 160.041 207.703 159.992 225.163C151.897 229.097 141.518 230.144 132.92 232.949L131.167 233.195L130.608 232.314C129.553 232.428 128.885 232.271 127.875 231.965C123.41 227.939 119.084 216.192 116.33 210.414C112.912 204.645 110.722 198.706 106.645 193.239C90.7427 177.771 79.7459 165.913 66.8376 147.724C63.3556 142.817 59.5068 137.715 56.846 132.317C58.5648 128.139 61.9759 127.394 65.8623 125.716C68.1718 117.806 70.1799 109.803 70.7528 101.552Z" fill="#235CB2"/>
<path d="M128.598 151.687C138.861 155.366 146.251 162.629 150.84 172.453C158.294 188.412 160.041 207.703 159.992 225.163C151.897 229.097 141.518 230.144 132.92 232.949L131.166 233.195L130.608 232.314C131.284 228.504 130.894 224.672 130.679 220.834C132.35 210.016 131.141 197.25 130.386 186.342C130.828 184.38 131.386 182.433 131.89 180.485C133.409 170.696 130.68 161.198 128.598 151.687Z" fill="#B3D1FF"/>
<path d="M131.891 180.485C133.927 183.884 132.81 225.685 132.92 232.949L131.167 233.194L130.608 232.314C131.284 228.504 130.894 224.671 130.679 220.834C132.35 210.016 131.141 197.25 130.387 186.342C130.829 184.38 131.386 182.433 131.891 180.485Z" fill="#ECF2F7"/>
<path d="M120.609 191.001C123.561 190.061 128.523 188.915 130.385 186.342C131.14 197.25 132.349 210.016 130.677 220.833C128.445 218.044 122.487 196.371 120.609 191.001Z" fill="#4F9CDA"/>
<path d="M106.645 193.238L112.439 192.728C114.267 198.168 117.13 204.636 116.329 210.414C112.911 204.645 110.722 198.706 106.645 193.238Z" fill="#4F9CDA"/>
<path d="M100.707 42.9862C115.425 45.8707 139.111 49.2054 153.14 42.7661C154.367 52.8541 152.488 63.797 153.617 72.2912C154.15 76.3094 155.587 80.28 156.778 84.1433C157.953 87.9524 160.8 94.7544 158.838 98.4585C156.407 99.5247 153.481 99.2692 150.859 99.3245L148.863 111.133C144.313 110.349 140.7 109.259 136.314 111.129L135.475 112.157C135.836 113.86 136.653 114.632 138.124 115.558C140.856 117.279 143.99 117.778 147.116 118.349C144.709 124.099 141.481 131.239 135.297 133.728C130.362 135.715 124.365 133.99 119.738 131.872C116.041 130.18 113.421 128.152 109.156 128.727L108.472 129.392C108.877 134.584 116.303 136.118 117.453 143.864C120.094 149.056 123.68 165.752 124.148 171.678C124.345 174.188 124.504 178.309 122.423 180.179C119.029 183.228 111.825 182.806 107.58 182.963C97.0912 174.544 73.5828 145.751 67.6406 133.946L68.003 133.098L70.0199 132.587C76.4763 125.305 77.3762 112.879 78.7193 103.527C80.8316 102.988 82.6601 102.698 84.2637 101.151C84.4798 100.475 84.8322 100.074 84.441 99.3997C81.0587 93.5743 67.4389 94.5565 69.5922 80.2136C70.1906 76.2342 71.8341 72.0413 75.1952 69.6047C77.2609 68.1072 79.7001 67.4336 82.2279 67.9468C87.9452 69.1081 90.2957 77.6422 94.9723 77.3303C98.4443 74.4955 98.9008 67.8937 99.3397 63.6698C100.052 56.8147 100.32 49.8667 100.707 42.9862Z" fill="#B3D1FF"/>
<path d="M107.58 182.963C97.0912 174.544 73.5828 145.751 67.6406 133.946L68.003 133.098L70.0199 132.587C83.724 141.708 97.95 151.6 113.826 156.512C115.029 152.305 116.121 148.029 117.453 143.864C120.094 149.056 123.68 165.752 124.148 171.678C124.345 174.188 124.504 178.309 122.423 180.179C119.029 183.228 111.825 182.806 107.58 182.963Z" fill="#4F9CDA"/>
<path d="M135.035 65.9502C136.601 66.0829 138.115 66.4335 139.21 67.6534C140.237 68.7982 140.671 70.298 140.523 71.811C140.286 74.2365 139.18 75.7019 137.403 77.268C135.59 77.0291 134.031 76.923 132.758 75.4332C131.525 73.992 131.104 72.2888 131.49 70.455C131.98 68.1279 133.12 67.1403 135.035 65.9502Z" fill="#235CB2"/>
<path d="M84.8325 300.529C80.1237 297.767 75.2199 295.984 70.6862 292.739C52.7023 279.87 37.4434 262.205 25.3252 243.896C23.0146 240.407 20.2828 236.784 18.6925 232.9C17.9212 231.016 17.5556 229.462 18.4 227.576C19.5913 227.511 19.8916 227.609 20.9123 228.336C25.1778 231.366 34.8313 247.305 38.7599 252.475C48.1896 264.883 60.5439 277.528 73.4778 286.338C79.0909 290.161 85.6448 293.595 92.4902 294.357C114.191 296.773 166.193 275.136 190.833 270.536C192.661 272.008 194.062 272.835 196.333 273.45C188.002 278.348 170.521 283.088 160.783 285.134C160.299 289.207 160.833 296.374 158.185 299.51C151.034 301.781 120.36 300.908 111.468 300.422C102.598 300.962 93.7059 300.998 84.8325 300.529Z" fill="#A3C4E5"/>
<path d="M111.469 300.422C115.127 297.841 153.732 286.537 160.784 285.134C160.3 289.207 160.834 296.374 158.185 299.51C151.035 301.781 120.361 300.908 111.469 300.422Z" fill="#B3D1FF"/>
<path d="M103.467 241.909C94.4411 231.615 86.3911 220.651 78.1749 209.717C75.2271 205.794 71.4481 201.734 69.0444 197.481C68.221 196.024 67.7157 194.216 67.7811 192.537C67.8309 191.261 67.9318 191.021 68.7529 190.129C70.8231 190.396 72.4599 192.324 73.6856 193.882C75.8144 196.591 77.5055 199.629 79.5579 202.403C88.9012 215.026 98.6834 228.343 109.378 239.883C116.695 237.79 123.958 235.644 131.165 233.194L132.918 232.949C141.517 230.144 151.895 229.097 159.99 225.163C166.835 223.143 174.014 222.693 180.888 220.821L181.187 224.865C159.793 231.078 138.451 237.468 117.164 244.036C110.333 246.164 103.555 248.937 96.7551 250.958C95.2191 251.414 92.9085 251.104 91.4889 250.374C90.3231 249.775 90.1369 249.58 89.5584 248.421C90.1901 246.834 91.1077 246.188 92.6769 245.513C96.1655 244.016 99.9755 243.415 103.467 241.909Z" fill="#A3C4E5"/>
<path d="M180.889 220.821C189.981 217.292 196.563 208.793 206.083 206.491C210.831 205.342 219.409 206.942 222.727 202.953C222.994 201.696 223.323 201.066 222.578 199.897C221.415 198.072 218.61 196.109 216.97 194.646C210.585 188.955 207.576 181.704 208.21 173.002C208.717 166.037 211.91 159.507 217.351 155.07C223.294 150.224 231.251 148.186 238.825 149.114C245.824 149.953 252.176 153.605 256.416 159.226C260.96 165.375 262.845 173.085 261.648 180.631C260.456 187.811 256.454 193.945 250.502 198.087C244.026 202.593 233.075 202.468 231.291 203.808C234.52 209.094 247.221 209.638 244.382 220.711C243.691 223.407 241.309 225.377 240.609 228.037C239.734 231.358 239.629 235.109 239.055 238.522C237.593 247.212 231.073 253.059 223.657 257.041C215.482 261.43 206.353 263.654 197.47 266.129C197.287 268.607 197.299 271.133 196.334 273.45C194.062 272.835 192.661 272.008 190.834 270.536C189.028 265.746 188.266 260.263 187.279 255.241C185.292 245.126 183.607 234.883 181.188 224.865L180.889 220.821Z" fill="#235CB2"/>
<path d="M217.805 213.362C222.217 213.288 230.478 213.219 234.27 215.683C235.709 216.619 235.846 217.327 236.285 218.935C234.828 224.88 223.773 222.121 219.319 225.448C218.776 226.816 218.901 226.901 219.324 228.333C221.654 230.853 227.669 229.145 230.846 229.792C231.77 229.98 231.691 230.328 232.121 231.082C231.193 236.97 221.997 234.929 219.015 240.669C218.604 241.46 218.879 241.747 219.091 242.542C221.965 244.885 225.75 244.058 229.193 243.815C226.629 245.716 223.935 247.421 221.259 249.16C213.316 253.13 204.751 256.443 195.935 257.797L189.908 226.302C198.953 218.239 205.338 214.218 217.805 213.362Z" fill="#B3D1FF"/>
<path d="M232.398 163.128C239.436 161.712 246.301 166.222 247.782 173.232C249.262 180.243 244.804 187.134 237.792 188.673C235.601 189.154 233.323 189.065 231.178 188.413C225.446 186.672 221.631 181.268 221.92 175.296C222.208 169.323 226.525 164.311 232.398 163.128Z" fill="#ECF2F7"/>
<path d="M231.792 167.932C234.833 166.815 238.243 167.445 240.683 169.575C243.122 171.705 244.2 174.995 243.494 178.151C242.788 181.308 240.411 183.828 237.297 184.721C232.716 186.035 227.915 183.495 226.433 178.975C224.952 174.455 227.32 169.574 231.792 167.932Z" fill="#235CB2"/>
</g>
</svg>
