<svg width="304" height="352" viewBox="0 0 304 352" fill="none" xmlns="http://www.w3.org/2000/svg">
<path d="M149.567 0.0782923C155.475 -0.343386 161.266 1.01381 166.991 2.3403C193.591 8.50328 219.928 17.5924 246.038 25.6214C261.286 30.3111 278.716 33.9952 292.93 41.0903C297.99 43.6169 300.04 45.278 301.746 50.7769C302.803 54.1862 303.319 57.8379 303.533 61.394C304.683 80.4019 303.344 100.047 303.361 119.14C303.385 146.58 305.536 175.923 301.76 203.066C300.078 216.071 296.158 228.686 290.173 240.351C271.014 277.72 228.047 309.259 193.311 331.715C181.406 339.413 169.026 347.631 155.47 352C139.996 351.531 123.987 339.322 111.237 331.218C68.5194 304.067 14.6466 263.808 3.32962 211.786C-0.281228 195.185 0.638095 177.789 0.665385 160.9L0.783128 105.102C0.78995 89.9896 -0.946407 73.5783 0.730242 58.6608C1.23341 54.1828 2.31989 49.3702 4.99946 45.6485C7.34984 42.3895 11.7555 40.5525 15.3817 39.0621C32.0288 32.2163 50.4958 27.8083 67.7723 22.5757C93.1915 14.878 123.779 3.67365 149.567 0.0782923Z" fill="#2B6BCC"/>
<path d="M128.954 91.1607C138.053 90.9746 169.422 88.5657 175.717 93.1325C183.272 98.6126 179.536 127.317 180.258 136.63L180.36 137.87C191.568 138.534 219.982 135.046 227.839 141.376C229.906 145.238 229.988 179.727 229.085 185.444C226.203 203.721 191.123 187.284 182.069 195.822C176.151 201.405 181.1 225.642 179.744 234.137C179.112 238.097 177.809 239.888 174.552 242.162C166.92 242.978 133.168 244.86 127.589 241.375C125.885 240.312 125 238.186 124.586 236.329C122.283 226.01 125.387 207.989 123.685 195.935C119.467 189.688 86.9147 198.569 78.3472 190.989C75.828 188.758 75.1679 185.169 75.1389 181.97C75.0537 173.164 74.704 153.275 75.8042 145.444C76.0396 143.77 76.7644 142.424 77.989 141.267C84.479 135.138 114.273 138.143 124.234 138.1C124.543 127.519 123.989 116.903 124.158 106.317C124.253 100.216 124.377 95.5806 128.954 91.1607Z" fill="#B3D1FF"/>
</svg>
