<svg width="66" height="70" viewBox="0 0 66 70" fill="none" xmlns="http://www.w3.org/2000/svg">
<g opacity="0.11">
<path d="M10.9396 81C6.59847 78.98 2.8064 76.556 1.23895 72.1503C0.639785 70.4688 0.423797 68.5089 0.318852 66.7466C-0.239429 57.3384 0.227338 47.6742 0.220016 38.2414C0.214525 30.4377 -0.373051 22.2655 0.39512 14.5192C0.641618 12.0281 1.10597 9.86123 2.50076 7.64253C4.62894 4.2577 7.94139 1.78789 12.1557 0.803011C17.7519 -0.505062 29.6436 0.17735 35.7487 0.182264C41.265 0.186631 47.1267 -0.169859 52.6039 0.341141C55.7706 2.15858 72.6367 17.1299 75.3232 20.1358C75.8851 20.7648 76.297 21.3981 76.488 22.1902C77.2653 25.4205 76.926 29.0325 76.9279 32.3272L76.934 46.6194V60.1391C76.9382 62.9621 77.1054 65.8949 76.7564 68.7054C76.4568 71.113 75.9468 73.3296 74.4184 75.3823C72.4031 78.0847 69.2822 79.99 65.8611 81H10.9396Z" fill="#2B6BCC"/>
<path d="M15.8656 6.29497C26.5534 5.80417 37.5263 6.15413 48.2337 6.24202C48.3899 10.0527 47.3264 22.7758 49.9238 25.1851C52.7725 27.8274 65.7655 26.7978 70.1604 27.0347C70.8255 33.853 70.3904 41.0135 70.4002 47.864C70.4093 54.1783 70.8523 60.7727 70.2782 67.0581C70.1586 68.3673 69.9536 69.6066 69.2818 70.7913C67.9053 73.2207 65.4531 74.6565 62.6434 75.5027C57.3004 76.5455 42.4385 75.9395 36.3249 75.934C30.0191 75.934 21.931 76.4527 15.7722 75.732C14.425 75.5737 13.1876 75.1806 12.0149 74.5692C9.52554 73.2698 7.9752 71.4683 7.36139 68.9242C6.71647 66.2551 7.04713 63.1001 7.05141 60.3731L7.04534 47.0751L7.03312 26.6072C7.03312 22.6983 6.82994 18.702 7.18748 14.8089C7.34246 13.1165 7.61764 11.5595 8.67258 10.1057C10.3566 7.7865 12.9753 6.84746 15.8656 6.29497Z" fill="#F9F9F9"/>
<path d="M51.6199 37.021C52.6547 37.0548 53.656 37.2727 54.4772 37.859C55.2924 38.4416 55.6817 39.1147 55.7329 40.0603C55.8165 41.6047 54.149 42.9576 53.0611 43.9965C50.1763 46.7519 40.5336 56.0852 37.5 57.6696C36.8752 57.9955 36.2223 58.0829 35.5097 58.0856C34.9777 58.0872 34.2955 58.0572 33.7964 57.8852C31.387 57.0543 25.8346 51.2957 23.7382 49.3893C22.4691 48.2728 21.0713 47.2689 20.5636 45.6911C20.1451 44.3907 20.0651 43.4898 20.8077 42.2855C21.3714 41.858 21.793 41.6391 22.5478 41.5796C26.6596 41.2542 31.9349 48.1522 34.9581 50.5565L35.3053 50.83C40.1199 47.2596 46.7479 39.404 51.6199 37.021Z" fill="#2B6BCC"/>
</g>
</svg>
