<svg width="60" height="60" viewBox="0 0 60 60" fill="none" xmlns="http://www.w3.org/2000/svg">
<path d="M30 6C43.2548 6 54 16.7452 54 30C54 43.2548 43.2548 54 30 54C16.7452 54 6 43.2548 6 30C6 16.7452 16.7452 6 30 6ZM30 17C29.4477 17 29 17.4477 29 18V30C29 30.2652 29.1054 30.5195 29.293 30.707L37.7783 39.1924L37.8545 39.2607C38.2473 39.581 38.8263 39.5585 39.1924 39.1924C39.5585 38.8263 39.581 38.2473 39.2607 37.8545L39.1924 37.7783L31 29.5859V18C31 17.4477 30.5523 17 30 17Z" fill="#21272A"/>
</svg>
