<svg width="18" height="19" viewBox="0 0 18 19" fill="none" xmlns="http://www.w3.org/2000/svg">
<path fill-rule="evenodd" clip-rule="evenodd" d="M16.1893 2.9777H10.4912V1.63501L1.125 3.08063V15.7521L10.4912 17.3653V15.3752H16.1893C16.362 15.3842 16.5311 15.3244 16.6597 15.2088C16.7883 15.0932 16.8657 14.9313 16.875 14.7587V3.59363C16.8656 3.4211 16.7881 3.25936 16.6595 3.14389C16.531 3.02842 16.3619 2.96865 16.1893 2.9777ZM16.2793 14.8611H10.4721L10.4625 13.7985H11.8614V12.561H10.4518L10.4451 11.8298H11.8614V10.5923H10.4344L10.4276 9.86101H11.8614V8.62351H10.4231V7.89226H11.8614V6.65476H10.4231V5.92351H11.8614V4.68601H10.4231V3.56101H16.2793V14.8611Z" fill="#4F9CDA"/>
<path d="M12.6494 4.68433H15.0811V5.92183H12.6494V4.68433ZM12.6494 6.65364H15.0811V7.89114H12.6494V6.65364ZM12.6494 8.62295H15.0811V9.86045H12.6494V8.62295ZM12.6494 10.5923H15.0811V11.8298H12.6494V10.5923ZM12.6494 12.5616H15.0811V13.7991H12.6494V12.5616Z" fill="#4F9CDA"/>
<path fill-rule="evenodd" clip-rule="evenodd" d="M3.5703 6.50349L4.77742 6.4343L5.53623 8.52062L6.43286 6.34824L7.63998 6.27905L6.17411 9.24118L7.63998 12.2106L6.36367 12.1246L5.50192 9.86105L4.63961 12.0385L3.4668 11.935L4.82917 9.31205L3.5703 6.50349Z" fill="white"/>
</svg>
