<svg width="65" height="65" viewBox="0 0 65 65" fill="none" xmlns="http://www.w3.org/2000/svg">
<path fill-rule="evenodd" clip-rule="evenodd" d="M26.4831 10.2956C28.903 5.90147 35.097 5.90147 37.5169 10.2956L55.1779 42.3651C57.5513 46.6748 54.5022 52 49.661 52H14.339C9.49781 52 6.44867 46.6748 8.82211 42.3651L26.4831 10.2956ZM35.1646 42.3025C35.1646 44.0878 33.7476 45.5351 31.9997 45.5351C30.2518 45.5351 28.8348 44.0878 28.8348 42.3025C28.8348 40.5171 30.2518 39.0698 31.9997 39.0698C33.7476 39.0698 35.1646 40.5171 35.1646 42.3025ZM31.9997 16.4414C30.2518 16.4414 28.8348 17.8887 28.8348 19.674V29.3719C28.8348 31.1573 30.2518 32.6046 31.9997 32.6046C33.7476 32.6046 35.1646 31.1573 35.1646 29.3719V19.674C35.1646 17.8887 33.7476 16.4414 31.9997 16.4414Z" fill="#FFD54D"/>
</svg>
