<svg width="27" height="27" viewBox="0 0 27 27" fill="none" xmlns="http://www.w3.org/2000/svg">
<path d="M13.359 2.81494C12.6424 2.81494 12.0614 3.39588 12.0614 4.1125V5.41006C12.0614 6.12669 12.6424 6.70762 13.359 6.70762C14.0756 6.70762 14.6566 6.12669 14.6566 5.41006V4.1125C14.6566 3.39588 14.0756 2.81494 13.359 2.81494Z" fill="white"/>
<path fill-rule="evenodd" clip-rule="evenodd" d="M5.57364 5.41006H9.46632C9.46632 7.55993 11.2091 9.30275 13.359 9.30275C15.5089 9.30275 17.2517 7.55993 17.2517 5.41006H21.1444C22.5776 5.41006 23.7395 6.57194 23.7395 8.00519V19.6832C23.7395 21.1165 22.5776 22.2784 21.1444 22.2784H5.57364C4.14039 22.2784 2.97852 21.1165 2.97852 19.6832V8.00519C2.97852 6.57194 4.14039 5.41006 5.57364 5.41006ZM8.81754 14.493C9.89247 14.493 10.7639 13.6216 10.7639 12.5466C10.7639 11.4717 9.89247 10.6003 8.81754 10.6003C7.74261 10.6003 6.8712 11.4717 6.8712 12.5466C6.8712 13.6216 7.74261 14.493 8.81754 14.493ZM11.9972 19.6832C12.0397 19.4736 12.0621 19.2566 12.0621 19.0345C12.0621 17.2429 10.6097 15.7906 8.81817 15.7906C7.02662 15.7906 5.57427 17.2429 5.57427 19.0345C5.57427 19.2566 5.59661 19.4736 5.63916 19.6832H11.9972ZM15.9541 11.8979C15.2375 11.8979 14.6566 12.4788 14.6566 13.1954C14.6566 13.9121 15.2375 14.493 15.9541 14.493H19.8468C20.5634 14.493 21.1444 13.9121 21.1444 13.1954C21.1444 12.4788 20.5634 11.8979 19.8468 11.8979H15.9541ZM14.6566 17.0881C14.6566 16.3715 15.2375 15.7906 15.9541 15.7906H18.5492C19.2659 15.7906 19.8468 16.3715 19.8468 17.0881C19.8468 17.8047 19.2659 18.3857 18.5492 18.3857H15.9541C15.2375 18.3857 14.6566 17.8047 14.6566 17.0881Z" fill="white"/>
</svg>
