<svg width="15" height="17" viewBox="0 0 15 17" fill="none" xmlns="http://www.w3.org/2000/svg">
<path d="M3.93243 16.25H10.9837C11.7614 16.25 12.5073 15.941 13.0572 15.3911C13.6072 14.8412 13.9161 14.0953 13.9161 13.3176V8.68432C13.9164 7.90669 13.6078 7.16079 13.0582 6.61068L8.05711 1.60878C7.78479 1.33649 7.4615 1.1205 7.1057 0.973149C6.7499 0.825798 6.36856 0.749972 5.98346 0.75H3.93243C3.1547 0.75 2.40883 1.05895 1.85889 1.60889C1.30895 2.15883 1 2.9047 1 3.68243V13.3176C1 14.0953 1.30895 14.8412 1.85889 15.3911C2.40883 15.941 3.1547 16.25 3.93243 16.25Z" stroke="#4F9CDA" stroke-linecap="round" stroke-linejoin="round"/>
<path fill-rule="evenodd" clip-rule="evenodd" d="M6.14794 4.42904C5.9477 4.49439 5.81951 4.62677 5.78265 4.77339C5.70724 5.06831 5.78265 5.38501 5.99462 5.78131C6.10019 5.97736 6.22922 6.17593 6.37165 6.38874L6.44873 6.50353L6.57021 6.68366L6.58613 6.62669L6.65819 6.37031C6.74085 6.08935 6.80509 5.80449 6.85089 5.51571C6.92546 4.97782 6.84167 4.6628 6.592 4.46004C6.52497 4.40558 6.35908 4.36034 6.14794 4.42904ZM6.19403 7.90774L5.96781 7.60444L5.941 7.56423C5.84465 7.40504 5.7374 7.24585 5.62094 7.07409L5.53716 6.94925C5.38299 6.72511 5.23983 6.4936 5.10819 6.25553C4.84846 5.77126 4.64067 5.17807 4.80824 4.52371C4.95067 3.96739 5.39305 3.61801 5.83627 3.47307C6.26943 3.33231 6.81989 3.3499 7.22708 3.68001C7.89065 4.21958 7.93757 4.99793 7.84624 5.6548C7.79536 5.98718 7.72231 6.31579 7.62757 6.63842L7.54713 6.92328C7.48458 7.13665 7.42649 7.35142 7.37286 7.56758L7.31673 7.73012L8.483 9.29185C9.02759 9.2265 9.62581 9.18712 10.1838 9.22734C10.8281 9.27258 11.5202 9.43009 11.9919 9.8775C12.1436 10.035 12.2535 10.228 12.3113 10.439C12.3691 10.6499 12.3731 10.872 12.3228 11.0848C12.2248 11.487 11.9424 11.8221 11.5528 12.0257C10.7276 12.4572 9.95927 12.1137 9.3887 11.6772C8.94213 11.3362 8.51316 10.8603 8.15205 10.4598L8.06492 10.3643C7.75492 10.412 7.46167 10.4657 7.22373 10.5109C6.96819 10.5587 6.65065 10.6181 6.30546 10.6952L6.17894 11.0664C6.10912 11.2273 6.04266 11.3892 5.97954 11.5523L5.87732 11.8062C5.77417 12.0676 5.65468 12.3222 5.51957 12.5686C5.24308 13.0529 4.80154 13.5673 4.06089 13.6084C3.06889 13.6637 2.39694 12.7831 2.58965 11.8422L2.59467 11.8196C2.76224 11.1569 3.3437 10.722 3.90589 10.4347C4.40608 10.1783 4.99005 9.98893 5.53213 9.84734L6.19403 7.90774ZM6.92295 8.88382L6.68249 9.59012L7.03522 9.52309L7.03857 9.52225L7.35694 9.46361L6.92295 8.88382ZM9.3024 10.2277C9.53197 10.4707 9.7607 10.6969 9.99865 10.8787C10.4595 11.2306 10.7862 11.2918 11.087 11.1343C11.2546 11.0463 11.3249 10.9323 11.3459 10.8477C11.356 10.8023 11.3553 10.7552 11.3436 10.7102C11.332 10.6652 11.3098 10.6236 11.2789 10.5888C11.0635 10.3978 10.6739 10.2704 10.1126 10.2302C9.84283 10.2131 9.57227 10.2122 9.3024 10.2277ZM5.10903 11.0211C4.84259 11.1125 4.58957 11.2138 4.36335 11.3295C3.87154 11.5808 3.63443 11.8355 3.57243 12.0559C3.50708 12.4036 3.7333 12.6197 4.00476 12.6047C4.23097 12.5921 4.4287 12.4505 4.64654 12.0693C4.76049 11.8615 4.86047 11.6473 4.94649 11.4267L5.03613 11.2038L5.10903 11.0211Z" fill="#4F9CDA"/>
</svg>
