<svg width="60" height="62" viewBox="0 0 60 62" fill="none" xmlns="http://www.w3.org/2000/svg">
<g opacity="0.14">
<path d="M34.4397 0.0182385C35.8001 -0.0799932 37.1335 0.236171 38.452 0.545183C44.5769 1.98088 50.6413 4.09824 56.6535 5.96862C60.1646 7.0611 64.1781 7.91933 67.4509 9.57217C68.6161 10.1608 69.0882 10.5477 69.481 11.8287C69.7245 12.6229 69.8431 13.4736 69.8926 14.302C70.1573 18.73 69.849 23.3063 69.8529 27.7542C69.8584 34.1464 70.3537 40.9821 69.4841 47.3051C69.0969 50.3348 68.1943 53.2734 66.8162 55.9909C62.4044 64.6961 52.5107 72.0432 44.5124 77.2745C41.7711 79.0678 38.9205 80.9823 35.799 82C32.236 81.8906 28.5496 79.0467 25.6139 77.1588C15.7775 70.8338 3.37257 61.4553 0.76669 49.3366C-0.0647564 45.4693 0.14693 41.4168 0.153214 37.4823L0.180325 24.4839C0.181896 20.9635 -0.217923 17.1404 0.168148 13.6653C0.284008 12.6221 0.534185 11.501 1.15119 10.634C1.6924 9.87482 2.70685 9.44689 3.54183 9.0997C7.37505 7.50493 11.6273 6.47806 15.6055 5.25911C21.4586 3.46589 28.5017 0.855794 34.4397 0.0182385Z" fill="#2B6BCC"/>
<path d="M29.6937 21.2362C31.789 21.1928 39.012 20.6317 40.4616 21.6955C42.2011 22.9721 41.341 29.6591 41.5072 31.8285L41.5307 32.1173C44.1115 32.272 50.6542 31.4594 52.4632 32.9341C52.9392 33.8337 52.9581 41.868 52.7503 43.1999C52.0866 47.4577 44.0089 43.6287 41.9242 45.6176C40.5614 46.918 41.7012 52.5642 41.3889 54.5431C41.2432 55.4658 40.9432 55.883 40.1934 56.4127C38.4359 56.6028 30.6642 57.0411 29.3795 56.2294C28.9871 55.9816 28.7833 55.4865 28.6879 55.0538C28.1577 52.6501 28.8725 48.452 28.4805 45.6438C27.5092 44.1886 20.0137 46.2575 18.0409 44.4917C17.4608 43.9719 17.3088 43.1359 17.3021 42.3906C17.2825 40.3393 17.202 35.7061 17.4553 33.8818C17.5095 33.4917 17.6764 33.1783 17.9584 32.9087C19.4528 31.4809 26.3133 32.1809 28.607 32.1709C28.6781 29.706 28.5504 27.2331 28.5893 24.767C28.6113 23.3456 28.64 22.2658 29.6937 21.2362Z" fill="#B3D1FF"/>
</g>
</svg>
