<svg width="58" height="70" viewBox="0 0 58 70" fill="none" xmlns="http://www.w3.org/2000/svg">
<g opacity="0.32">
<path d="M0.128327 12.9016C0.238102 9.91445 -0.801284 3.66115 1.63813 1.56646C2.29717 1.00056 3.1947 0.398859 4.0702 0.283266C7.9077 -0.223864 12.1302 0.104227 16.0133 0.106173L39.9394 0.181678L58.6437 0.16961C61.8949 0.158713 65.4046 -0.109442 68.6213 0.267695C69.9355 0.422208 71.0553 1.16558 71.884 2.19112C72.5694 3.03881 72.6587 4.35586 72.7507 5.41527C73.223 10.8598 72.8794 16.706 72.8782 22.2019C72.8767 28.4218 73.1693 34.814 72.85 41.0152L72.8975 57.0888C72.9037 59.8845 73.2006 63.0125 72.7089 65.7505C72.5346 66.7216 72.0692 67.5334 71.3935 68.2441C69.755 69.9667 67.6797 69.9438 65.4792 69.9348C63.1329 69.9251 60.7171 69.9379 58.3859 69.6721C56.5101 69.8231 54.5631 69.7488 52.6865 69.6717C51.7364 69.8243 50.794 69.8648 49.8335 69.8885C39.8126 70.1368 29.7337 69.8897 19.7059 69.9115L9.69272 69.9375C7.95951 69.9407 6.00867 70.1006 4.29826 69.8107C3.35357 69.6503 2.34201 68.9069 1.68336 68.2387C0.843032 67.3863 0.33281 66.3285 0.174332 65.1402C-0.0919901 63.1429 0.0529601 60.9983 0.0560523 58.9792L0.0626228 48.5567L0.128327 12.9016Z" fill="#D3E4FF"/>
<path d="M0.128327 12.9016C0.238102 9.91445 -0.801284 3.66115 1.63813 1.56646C2.29717 1.00056 3.1947 0.398859 4.0702 0.283266C7.9077 -0.223864 12.1302 0.104227 16.0133 0.106173L39.9394 0.181678L58.6437 0.169611C61.8949 0.158713 65.4046 -0.109442 68.6213 0.267695C69.9355 0.422208 71.0553 1.16558 71.884 2.19112C72.5694 3.03881 72.6587 4.35586 72.7507 5.41527C73.223 10.8598 72.8794 16.706 72.8782 22.2019C72.8767 28.4218 73.1693 34.814 72.85 41.0152C72.4511 37.7642 72.6888 34.2446 72.6935 30.9609L72.7124 12.8922L0.128327 12.9016Z" fill="#4C99D7"/>
<path d="M52.6862 69.6718C48.3183 68.1835 44.8357 66.3908 42.6842 62.0481C40.9912 58.6305 41.113 54.0302 42.3437 50.4659C43.6262 46.7525 46.4672 44.0145 49.9557 42.3518C53.0831 40.8608 56.7591 40.5334 60.0311 41.7474C63.7762 43.1372 66.7208 46.2512 68.3195 49.891C69.8401 53.3534 69.701 57.4824 68.3268 60.9782C66.9956 64.3662 63.8566 67.5834 60.5224 69.009C59.8281 69.306 59.1208 69.5115 58.3856 69.6722C56.5097 69.8232 54.5628 69.7489 52.6862 69.6718Z" fill="#3A7BDE"/>
<path d="M61.1347 51.0235C61.5862 50.9866 62.1703 50.9149 62.5885 51.1267C63.0577 51.3645 63.1389 51.6455 63.3063 52.0989C63.2549 52.659 63.1203 53.0606 62.8378 53.5498C61.9205 55.1374 55.3112 61.9348 53.7369 62.3221C52.2012 61.9881 51.2321 60.6707 50.1812 59.5817C49.3617 58.7912 48.4371 57.9712 48.1112 56.8304C47.9775 56.3618 48.0413 56.1345 48.2473 55.7115C48.7023 55.4079 49.1626 55.2452 49.7157 55.2814C50.9743 55.3643 52.6917 57.4341 53.6027 58.3183C56.1434 55.9469 58.3954 53.1649 61.1347 51.0235Z" fill="#F9F9F9"/>
<path d="M12.3007 40.7255C14.6434 40.6928 22.4476 40.0234 23.9094 41.602C24.684 42.4384 24.5136 50.0002 24.282 51.55C24.1703 52.2988 23.9631 52.6179 23.3679 53.0671C20.5972 53.3095 15.8034 53.4119 13.059 53.1469C12.5457 53.0974 11.9899 53.0643 11.6698 52.6117C10.8488 51.4519 11.0761 43.8554 11.3038 42.2897C11.4174 41.5086 11.6942 41.1972 12.3007 40.7255Z" fill="#4C99D7"/>
<path d="M49.5708 22.265C51.9314 22.1899 59.8004 21.6847 61.4103 22.9749C61.895 24.2317 61.8888 31.1509 61.7222 32.675C61.6279 33.5363 61.4142 33.9356 60.7567 34.491C60.454 34.5124 60.1533 34.5327 59.8499 34.5408C58.3675 34.5798 49.8247 34.9032 49.2059 34.1859C47.9203 32.6964 48.3524 26.1123 48.5681 24.155C48.6701 23.2291 48.8522 22.8558 49.5708 22.265Z" fill="#4C99D7"/>
<path d="M12.4622 22.2867C14.7432 22.2229 22.6184 21.6796 24.0984 23.0807C24.4807 24.1358 24.5337 31.9852 24.3091 33.124C24.1703 33.8273 23.9102 34.1181 23.3304 34.5042C20.3 34.6816 16.1482 34.8945 13.1765 34.5384C12.5732 34.4664 11.9999 34.3652 11.6493 33.8219C10.7986 32.5033 10.9899 25.3782 11.3247 23.6851C11.48 22.8982 11.8457 22.7008 12.4622 22.2867Z" fill="#4C99D7"/>
<path d="M30.8254 22.2867C33.4824 22.1415 38.4366 21.8959 40.893 22.3587C41.4585 22.4653 42.1025 22.6486 42.3816 23.204C42.7619 23.9614 42.7074 32.0144 42.472 33.1505C42.3155 33.9067 41.9993 34.127 41.3932 34.5092C38.3268 34.7197 34.7069 34.8579 31.6595 34.5341C31.0704 34.4714 30.4017 34.3827 30.0507 33.8538C29.2255 32.6103 29.3921 25.2614 29.7489 23.6625C29.9166 22.9121 30.227 22.6806 30.8254 22.2867Z" fill="#4C99D7"/>
<path d="M30.6346 40.7299C32.2742 40.6727 41.2256 40.2737 42.2055 41.2973C42.7764 41.8936 42.6546 43.3912 42.6647 44.1696C40.759 46.1923 39.7112 47.8161 38.9048 50.5241L38.2354 53.1427C36.0627 53.1396 33.832 53.3295 31.6674 53.1656C31.1046 53.1232 30.4595 53.0828 30.1039 52.5857C29.2427 51.3839 29.4638 44.4829 29.6358 42.7592C29.7328 41.7881 29.8804 41.3639 30.6346 40.7299Z" fill="#4C99D7"/>
</g>
</svg>
