<svg width="60" height="60" viewBox="0 0 60 60" fill="none" xmlns="http://www.w3.org/2000/svg">
<path fill-rule="evenodd" clip-rule="evenodd" d="M30 54C43.2548 54 54 43.2548 54 30C54 16.7452 43.2548 6 30 6C16.7452 6 6 16.7452 6 30C6 43.2548 16.7452 54 30 54ZM26.1213 21.8787C24.9497 20.7071 23.0503 20.7071 21.8787 21.8787C20.7071 23.0503 20.7071 24.9497 21.8787 26.1213L25.7574 30L21.8787 33.8787C20.7071 35.0503 20.7071 36.9497 21.8787 38.1213C23.0503 39.2929 24.9497 39.2929 26.1213 38.1213L30 34.2426L33.8787 38.1213C35.0503 39.2929 36.9497 39.2929 38.1213 38.1213C39.2929 36.9497 39.2929 35.0503 38.1213 33.8787L34.2426 30L38.1213 26.1213C39.2929 24.9497 39.2929 23.0503 38.1213 21.8787C36.9497 20.7071 35.0503 20.7071 33.8787 21.8787L30 25.7574L26.1213 21.8787Z" fill="#D64545"/>
</svg>
