<svg width="639" height="186" viewBox="0 0 639 186" fill="none" xmlns="http://www.w3.org/2000/svg">
<path d="M137.997 45.675C138.889 46.5533 139.392 47.7529 139.392 49.005V159.638C139.392 162.219 137.3 164.311 134.719 164.311H115.831C110.515 164.311 107.009 152.072 110.147 147.781C114.36 142.022 117.117 135.16 118.174 127.41C118.596 124.314 115.626 122.004 112.614 122.837L95.0815 127.688C93.0383 128.254 91.7153 130.159 91.1514 132.202C89.5553 137.987 84.0035 142.7 76.9326 144.656C65.439 147.837 55.3388 142.371 49.7756 130.758C48.6179 128.342 50.1003 125.584 52.6828 124.869L111.818 108.506C114.305 107.818 115.769 105.23 114.999 102.767C103.736 66.7625 82.6365 52.944 53.3613 61.0449C22.8981 69.4748 10.8171 94.1026 19.3027 124.768C22.1977 135.229 26.0799 143.796 30.9465 150.457C33.9198 154.526 30.7166 164.311 25.6764 164.311H4.67233C2.09187 164.311 0 162.219 0 159.638V23.3618C0 20.7813 2.09187 18.6895 4.67233 18.6895H108.665C109.892 18.6895 111.069 19.1716 111.943 20.0318L137.997 45.675ZM58.3037 82.0479C67.4548 79.5155 77.6736 82.7011 82.973 93.72C84.1131 96.0906 82.6171 98.7764 80.0818 99.478L49.0056 108.078C46.3885 108.802 43.6649 107.145 43.5403 104.432C43.0138 92.9655 49.1008 84.5947 58.3037 82.0479Z" fill="#2B6BCC"/>
<path d="M138.63 47.048C138.909 47.048 139.047 46.71 138.849 46.5145L111.108 19.2111C110.911 19.0173 110.578 19.1568 110.578 19.4331V47.048H138.63Z" fill="#B3D1FF"/>
<path d="M181.49 114.6V95.5355H224.651V114.6H181.49ZM391.645 64.7279C398.152 64.7279 403.897 66.0497 408.879 68.6933C413.962 71.2351 417.928 75.2005 420.775 80.5893C423.723 85.8764 425.198 92.6886 425.198 101.026V148H401.406V104.686C401.406 98.0774 400.033 93.197 397.288 90.0451C394.542 86.8931 390.679 85.3172 385.697 85.3172C382.24 85.3172 379.139 86.1306 376.393 87.7574C373.648 89.2825 371.513 91.621 369.988 94.773C368.463 97.9249 367.7 101.941 367.7 106.822V148H343.908V104.686C343.908 98.0774 342.536 93.197 339.79 90.0451C337.147 86.8931 333.334 85.3172 328.352 85.3172C324.895 85.3172 321.794 86.1306 319.049 87.7574C316.303 89.2825 314.168 91.621 312.643 94.773C311.118 97.9249 310.355 101.941 310.355 106.822V148H286.563V65.948H309.288V88.3674L305.017 81.8094C307.864 76.2172 311.88 71.9977 317.066 69.1508C322.353 66.2022 328.352 64.7279 335.062 64.7279C342.586 64.7279 349.144 66.6598 354.737 70.5234C360.43 74.2854 364.192 80.0809 366.023 87.9099L357.634 85.6222C360.38 79.2167 364.752 74.1329 370.75 70.3709C376.851 66.6089 383.816 64.7279 391.645 64.7279ZM487.84 149.22C478.486 149.22 470.25 147.39 463.133 143.73C456.117 140.069 450.678 135.087 446.814 128.783C442.95 122.378 441.018 115.108 441.018 106.974C441.018 98.7383 442.899 91.4685 446.661 85.1647C450.525 78.7591 455.761 73.777 462.37 70.2184C468.979 66.5581 476.452 64.7279 484.79 64.7279C492.822 64.7279 500.041 66.4564 506.446 69.9134C512.954 73.2687 518.088 78.1491 521.85 84.5546C525.612 90.8585 527.493 98.4333 527.493 107.279C527.493 108.194 527.442 109.262 527.341 110.482C527.239 111.6 527.137 112.668 527.036 113.685H460.388V99.8059H514.53L505.379 103.924C505.379 99.6534 504.515 95.9422 502.786 92.7903C501.058 89.6384 498.668 87.1982 495.618 85.4697C492.568 83.6395 489.009 82.7245 484.942 82.7245C480.875 82.7245 477.266 83.6395 474.114 85.4697C471.063 87.1982 468.674 89.6892 466.946 92.9428C465.217 96.0948 464.353 99.8567 464.353 104.229V107.889C464.353 112.363 465.319 116.328 467.251 119.785C469.284 123.14 472.08 125.733 475.639 127.563C479.299 129.292 483.57 130.156 488.45 130.156C492.822 130.156 496.635 129.495 499.888 128.173C503.244 126.852 506.294 124.869 509.039 122.225L521.698 135.951C517.936 140.222 513.208 143.526 507.514 145.865C501.82 148.102 495.262 149.22 487.84 149.22ZM578.564 149.22C570.836 149.22 563.872 147.492 557.669 144.035C551.467 140.476 546.536 135.545 542.876 129.241C539.317 122.937 537.538 115.515 537.538 106.974C537.538 98.3316 539.317 90.8585 542.876 84.5546C546.536 78.2507 551.467 73.3703 557.669 69.9134C563.872 66.4564 570.836 64.7279 578.564 64.7279C585.478 64.7279 591.527 66.2531 596.713 69.3033C601.898 72.3536 605.914 76.9798 608.761 83.182C611.608 89.3842 613.032 97.3149 613.032 106.974C613.032 116.531 611.659 124.462 608.914 130.766C606.169 136.968 602.203 141.594 597.018 144.645C591.934 147.695 585.783 149.22 578.564 149.22ZM582.682 129.698C586.545 129.698 590.053 128.783 593.205 126.953C596.357 125.123 598.848 122.53 600.678 119.175C602.61 115.718 603.576 111.651 603.576 106.974C603.576 102.195 602.61 98.1283 600.678 94.773C598.848 91.4177 596.357 88.825 593.205 86.9948C590.053 85.1647 586.545 84.2496 582.682 84.2496C578.716 84.2496 575.158 85.1647 572.006 86.9948C568.854 88.825 566.312 91.4177 564.38 94.773C562.55 98.1283 561.635 102.195 561.635 106.974C561.635 111.651 562.55 115.718 564.38 119.175C566.312 122.53 568.854 125.123 572.006 126.953C575.158 128.783 578.716 129.698 582.682 129.698ZM604.186 148V131.224L604.643 106.822L603.118 82.5719V34.8354H626.91V148H604.186Z" fill="#1C1C1C"/>
</svg>
